<svg width="629" height="629" version="1.1" xmlns="http://www.w3.org/2000/svg" desc="Created with imagetracer.js version 0.2.1" ><path fill="rgb(0,0,0)" stroke="rgb(0,0,0)" stroke-width="1" opacity="0" d="M 0 0 L 629 0 L 629 629 L 0 629 L 0 0 Z M 334 177 L 324 179 L 315 179 L 314 181 L 306 182 L 303 184 Q 298 183 299 186 L 291 189 Q 288 188 289 191 L 280 194 L 279 197 L 276 197 L 274 201 L 269 205 Q 270 207 268 206 L 265 210 L 262 211 L 259 219 L 256 220 Q 255 227 251 232 L 250 238 L 248 240 L 249 242 L 247 245 L 247 273 L 249 273 L 248 275 Q 247 278 250 277 L 249 280 L 257 296 Q 256 298 259 297 L 262 303 Q 261 305 264 304 L 265 308 L 270 311 Q 272 310 271 313 L 284 321 Q 286 320 285 323 Q 289 323 292 326 Q 295 325 294 328 L 304 331 Q 306 330 305 333 L 311 334 L 315 337 L 333 344 L 334 347 Q 339 346 341 350 Q 343 349 342 352 L 347 355 L 352 364 L 353 368 L 353 383 L 352 388 L 351 387 Q 350 392 347 395 Q 348 397 346 396 L 344 399 L 336 406 L 318 411 L 299 410 L 291 406 L 288 406 L 280 401 Q 276 402 277 400 L 271 396 L 269 393 Q 270 390 267 391 L 260 382 Q 261 378 258 379 L 253 365 L 215 365 L 212 368 L 213 372 Q 212 375 215 374 L 214 378 L 216 380 L 217 387 Q 221 390 222 398 L 228 407 Q 227 409 230 408 L 231 412 L 232 413 L 176 413 L 170 411 Q 165 412 166 409 L 159 406 L 148 396 L 147 392 Q 143 393 145 389 Q 141 387 144 386 L 140 378 L 141 375 L 140 372 L 141 368 L 140 366 Q 143 362 143 356 L 145 354 Q 144 349 147 350 L 155 339 L 157 339 L 159 335 L 164 334 L 170 330 L 183 329 L 184 328 L 185 329 L 192 329 L 193 326 L 191 320 L 191 302 Q 193 300 192 296 L 198 283 L 201 281 L 202 278 L 206 275 L 207 272 L 213 270 L 214 267 L 227 264 L 229 262 L 236 262 L 236 246 L 236 244 L 238 241 L 238 234 L 240 233 L 241 225 L 219 226 L 214 228 Q 208 226 209 230 L 203 231 L 201 233 Q 196 232 197 235 L 195 235 L 185 242 L 183 245 L 180 246 L 176 251 Q 173 250 174 254 L 170 256 L 167 262 Q 168 265 166 264 L 162 270 Q 163 274 160 273 L 153 298 L 145 301 Q 142 300 143 303 L 141 303 L 137 306 Q 134 305 135 308 L 131 310 L 129 313 L 127 314 L 124 318 L 122 319 L 118 324 Q 119 326 116 325 L 114 332 L 111 333 L 109 342 L 106 346 L 103 363 L 103 379 L 104 380 L 104 388 L 106 393 Q 105 397 108 396 L 111 405 Q 109 409 113 408 L 116 415 Q 115 417 118 416 L 119 420 L 123 422 L 124 426 L 127 427 L 128 430 L 132 432 Q 134 431 133 434 L 141 438 L 140 440 L 162 448 Q 167 446 166 450 L 174 450 L 175 451 L 323 451 L 324 450 L 332 450 L 332 448 L 348 445 L 356 440 Q 359 441 358 438 L 364 436 L 365 433 L 368 432 Q 370 433 369 431 L 374 427 L 375 425 L 378 423 L 379 421 Q 378 418 381 419 L 384 414 Q 383 411 386 412 L 386 409 L 389 403 Q 388 399 391 400 L 394 382 L 393 380 L 394 376 L 393 373 L 394 370 L 393 369 L 393 360 L 391 355 Q 392 350 389 351 Q 390 345 386 342 Q 387 338 384 339 L 383 336 L 380 334 L 378 330 Q 379 327 376 328 L 376 326 L 375 326 L 373 324 L 367 318 Q 363 319 364 317 L 359 313 Q 356 314 357 311 L 350 308 Q 347 309 348 306 L 340 303 Q 336 304 337 301 L 327 298 L 324 295 L 320 294 Q 316 295 317 292 L 310 289 Q 306 290 307 287 L 302 285 L 300 282 L 298 281 Q 295 282 296 279 L 294 279 L 289 269 Q 290 264 287 265 L 287 251 L 292 241 Q 291 237 294 238 L 296 235 Q 295 231 299 233 L 299 232 L 311 223 L 321 221 L 323 219 L 325 220 L 329 218 L 345 218 L 348 219 L 350 219 Q 352 218 351 221 Q 357 220 360 223 Q 364 221 363 225 L 376 232 L 377 235 Q 379 239 381 236 L 382 240 L 386 242 L 388 247 L 391 248 L 394 256 Q 393 258 396 257 L 396 260 L 400 260 L 405 257 L 413 255 L 416 256 L 421 255 L 420 254 L 434 253 L 436 252 L 430 238 Q 431 234 428 235 Q 428 231 425 229 Q 426 225 424 226 L 422 223 L 418 220 L 417 217 L 414 215 L 411 208 L 395 196 Q 392 197 393 194 L 378 186 Q 374 187 375 184 L 371 184 L 363 181 Q 358 182 359 179 L 334 177 Z M 419 265 L 415 267 Q 409 265 410 269 Q 404 268 401 272 L 402 283 L 403 284 L 403 297 L 404 298 L 403 302 L 403 306 Q 406 305 405 308 Q 409 309 408 306 L 432 302 Q 436 301 438 303 Q 442 304 444 302 L 444 304 Q 450 303 453 306 Q 457 305 456 308 Q 461 307 463 311 Q 466 310 465 313 L 470 315 L 471 318 L 476 322 Q 475 325 478 324 L 484 334 L 487 348 L 489 350 L 489 366 L 487 368 Q 487 375 484 380 Q 485 383 482 382 L 479 391 L 477 392 L 475 396 L 472 398 Q 469 397 470 400 L 465 404 Q 462 403 463 406 L 459 406 L 459 408 L 456 408 L 452 411 L 443 413 L 397 413 L 396 416 L 395 416 L 391 422 Q 392 424 389 423 L 389 426 L 387 426 L 387 429 L 385 430 L 382 435 Q 381 437 380 435 L 377 439 L 375 440 L 371 445 L 365 447 L 363 451 L 366 452 L 367 451 L 445 451 L 447 450 L 449 450 Q 455 452 454 448 L 466 446 L 478 440 Q 481 441 480 439 L 486 435 Q 488 436 487 433 L 490 432 Q 492 433 491 430 L 494 430 L 494 429 L 505 418 Q 504 415 507 416 L 510 410 L 514 407 Q 513 403 516 401 Q 515 398 518 399 L 521 391 Q 519 385 523 386 L 525 372 L 525 370 L 526 366 L 525 341 L 523 335 Q 525 329 521 330 L 518 320 Q 519 317 516 318 L 513 310 Q 514 307 511 308 L 504 297 L 499 293 Q 500 290 498 291 L 495 288 L 491 284 Q 488 285 489 282 L 484 279 Q 481 280 482 277 L 475 274 Q 471 275 472 272 L 463 269 L 459 269 L 457 267 L 446 265 L 424 265 L 423 266 L 419 265 Z " /><path fill="rgb(207,235,63)" stroke="rgb(207,235,63)" stroke-width="1" opacity="0.5254901960784314" d="M 334.5 177 L 336.5 177 L 359 179 Q 357.9 181.7 360.5 181 L 375 184 Q 373.8 187 377.5 186 L 381.5 189 L 384.5 189 L 390.5 194 L 393 194 L 394.5 197 L 398 198.5 L 398.5 200 L 399.5 199 L 408.5 208 Q 411.8 206.9 411 209.5 L 414 215 L 417 216.5 Q 416.5 220.5 419.5 221 L 422 222.5 L 423.5 227 L 425 226.5 L 424 229 L 427 230.5 Q 426.3 234.3 428.5 235 Q 431.1 234.2 430 237.5 L 429.5 239 Q 431.8 238.3 431 240.5 L 433 247 Q 436 245.8 435 249.5 L 436 252 L 433.5 253 L 420 253.5 L 420.5 255 L 415.5 256 L 413 255 Q 411.7 251.7 416.5 253 L 423.5 251 L 431.5 251 L 433 249.5 Q 424.2 225.3 407.5 209 L 404.5 207 Q 390.3 192.7 369.5 185 L 348.5 180 L 325.5 180 L 307.5 184 L 290.5 191 Q 276.1 198.6 266 210.5 Q 255.8 221.8 251 238.5 L 249 249.5 L 249 268.5 L 252 281.5 L 263 302 Q 265.7 300.9 265 303.5 L 283.5 319 L 302.5 329 L 334.5 343 L 349 354.5 L 355 367.5 L 355 382.5 Q 351.9 396.9 341.5 404 Q 334.7 409.7 324.5 412 L 305.5 413 Q 304 410.5 298.5 412 L 282.5 406 Q 271.2 399.3 263 389.5 L 261 386.5 L 250.5 368 L 215.5 368 L 214 369.5 L 221 390.5 L 228 403.5 L 234 410.5 L 235 415 L 221.5 415 L 219.5 416 L 215.5 415 L 213.5 415 L 206.5 416 L 202.5 416 Q 197 417.5 195.5 415 L 194.5 416 L 181.5 416 L 167.5 413 L 151 402.5 L 141 387.5 L 138 376.5 L 138 365.5 Q 141.5 347 153.5 337 L 169.5 328 L 187.5 326 Q 188.8 328.3 190 325.5 Q 186.3 317.2 188 303.5 L 191 291.5 L 196 281.5 L 205.5 271 L 216.5 264 L 224.5 261 L 233 260 Q 234.9 254.4 234 244.5 L 239 227 L 218.5 228 L 206.5 233 L 203.5 233 Q 185.8 241.3 174 255.5 L 161 276.5 L 156 293.5 L 156 297.5 L 154.5 299 Q 135.5 305.5 124 319.5 L 122 322.5 L 115 331.5 L 107 350.5 L 105 361.5 L 105 379.5 Q 111 414.5 134.5 432 L 154.5 444 Q 160.5 444 163.5 447 L 174 448.5 L 172.5 450 L 166 450 Q 167.3 446.7 162.5 448 L 154 446 L 153.5 444 L 151 445 Q 152.3 442 148.5 443 L 142 439.5 Q 142.8 436.9 139.5 438 L 137 437 L 137 435 Q 133.3 436.5 134 433.5 L 131 429 L 128.5 430 L 126.5 427 L 124 425.5 Q 124.5 421.5 121.5 421 L 119 419.5 L 116 414.5 L 116.5 413 L 114 411.5 L 112.5 408 Q 109.9 408.8 111 405.5 L 111.5 404 Q 108.9 404.8 110 401.5 L 108 396 Q 105 397.3 106 393.5 L 107 391.5 L 104 386.5 L 103 363.5 L 104 362.5 L 105 349 L 107 348.5 L 106 346.5 L 108 344.5 L 111 333 L 114 331.5 L 116 325 L 120 322.5 L 121.5 319 L 125 316.5 Q 124.3 314.3 126.5 315 L 130.5 310 L 143 303 Q 141.9 300.3 144.5 301 Q 148.1 297.6 155 297.5 L 153 296.5 L 154 293 Q 156.7 294.1 156 291.5 L 155 288 Q 158.7 289.4 157 283.5 L 159 275 L 162 273.5 L 162 270.5 L 165.5 264 Q 168.1 264.8 167 261.5 L 171 259 L 170 256.5 L 175 253.5 L 174 251 L 179 247.5 Q 178.2 244.9 181.5 246 L 184 242 L 189.5 238 L 194 237 L 194.5 235 Q 195.8 237.3 197 234.5 Q 196.2 231.9 199.5 233 L 201 233.5 L 202.5 231 L 209 230 L 209.5 228 L 210.5 230 L 211 228 L 218.5 226 L 221.5 227 Q 228.9 223.3 241 225 L 240 233 L 238 233.5 L 238 240.5 L 236 243.5 L 236 260.5 L 234.5 262 L 228.5 262 L 226.5 264 L 214 267 L 213.5 269 L 212 268.5 Q 212.8 271.1 209.5 270 Q 203 273.5 200.5 281 L 199 280.5 L 198 284 Q 194.7 282.7 196 287.5 L 193 290.5 Q 193.6 296.6 191 299.5 L 191 319.5 L 192 322 L 190 322.5 L 192 323 L 193 325.5 L 192 329 L 185.5 329 Q 186.3 326 182 327 L 181.5 329 L 173.5 329 L 165 331 Q 166.1 333.7 163.5 333 L 159 335 L 158.5 337 L 157 336.5 Q 158.3 340.3 154.5 339 L 151 344 L 148 345.5 Q 150.2 346.8 147.5 348 L 146 348.5 L 146.5 350 Q 144.3 349.3 145 351.5 L 143 355.5 Q 143.6 360.1 141 361.5 Q 143.5 363 140 364.5 L 141 367.5 L 140 371.5 L 141 374.5 L 140 379 Q 143.3 377.7 142 382.5 L 144 385.5 L 143 386.5 L 145 390.5 L 147 393.5 L 146.5 395 L 156 403.5 L 157.5 406 L 164 408 L 164.5 410 L 166 409.5 Q 165.1 412.5 169.5 411 L 174 412 Q 172.9 414.7 175.5 414 L 176.5 413 L 234 412.5 L 231 412 L 229.5 407 L 228 407.5 L 228.5 406 Q 225.9 406.8 227 403.5 Q 224.3 402.4 225 399 L 222 397.5 L 219.5 388 L 218 388.5 L 216 379.5 L 214 377.5 L 215 374 Q 212 375.3 213 371.5 L 212 367.5 L 214.5 365 L 253 365 Q 251.7 369.1 255 368 L 255 371.5 L 258.5 379 Q 261.1 378.2 260 381.5 L 267 391 L 269 391.5 L 268.5 393 Q 270.8 392.3 270 394.5 L 276 398.5 L 277.5 401 L 284 403 Q 282.9 405.7 285.5 405 L 289.5 407 L 291 406.5 L 292.5 409 L 296 408 Q 294.9 411.5 302.5 410 L 303.5 411 L 318.5 411 L 338 405 Q 336.9 402.3 339.5 403 L 343 401 L 345.5 396 Q 347.8 396.8 347 394.5 L 349 391 L 351 390.5 L 350 387.5 L 352 387.5 Q 354.7 379.2 353 366.5 L 346.5 354 L 342 351.5 Q 342.8 349.3 340.5 350 L 335.5 346 L 334 346.5 L 334.5 345 L 328 343 L 327.5 341 Q 326 343.5 324.5 340 L 319.5 339 L 316.5 336 L 314.5 337 L 311.5 334 L 308.5 334 L 300.5 329 Q 295.8 329.8 294 327.5 L 294.5 326 L 291.5 326 L 286 323 Q 287.1 320.3 284.5 321 L 278 318 Q 279.3 315 275.5 316 Q 272.1 309.9 265 307.5 L 263.5 304 Q 261.3 304.8 262 302.5 L 259 297 Q 256.3 298.1 257 295.5 L 254 290.5 L 254 287 Q 251.3 288.1 252 285.5 L 249 279.5 L 250 277 Q 247 278.3 248 274.5 L 248.5 273 L 247 272.5 L 247 270.5 L 247 244.5 L 249 244 L 249 241.5 L 248 239 Q 251.3 240.3 250 235.5 L 252 229 Q 255 230.3 254 226.5 L 255 222.5 L 257.5 220 Q 260.5 220.9 259 216.5 L 262.5 211 L 264 211.5 L 267.5 206 L 270 204.5 L 271.5 202 L 274 200.5 L 274.5 199 L 276 199.5 Q 274.8 195.8 278.5 197 L 280 194 L 289 191 Q 287.9 188.3 290.5 189 L 299 185.5 Q 298.1 182.1 303.5 184 L 305.5 182 Q 311.6 182.8 314 181 L 314.5 179 L 323.5 179 L 325 179.5 L 325.5 178 L 333.5 178 L 334.5 177 Z " /><path fill="rgb(207,235,63)" stroke="rgb(207,235,63)" stroke-width="1" opacity="0.5254901960784314" d="M 330.5 216 L 343.5 216 L 359.5 220 Q 377 227.5 388 241.5 L 397.5 257 L 411 254 Q 412.3 257.3 407.5 256 L 403 257 L 402.5 259 L 400 258 Q 401.2 261.7 396 260 L 396 257 Q 393 258.3 394 254.5 L 389.5 247 Q 387.3 247.8 388 245.5 L 386 241 L 382 239.5 L 380.5 236 L 379 236.5 L 378.5 234 L 377 234.5 Q 379.3 233.3 376.5 232 L 373 230.5 L 371.5 228 L 364 226 Q 365.8 221.1 359.5 223 Q 357 220 351 220.5 L 351.5 219 L 348.5 220 L 344.5 218 L 328.5 218 L 324.5 220 L 321 219 Q 322.3 222.3 317.5 221 L 307 224 Q 308.1 226.7 305.5 226 Q 304.3 229.8 300 229 L 298.5 233 Q 296.8 230.3 295 234.5 L 294 238 L 291 239.5 L 290 246.5 L 288.5 248 L 287 248.5 L 287 265.5 L 289 265.5 L 289 267.5 L 292 276.5 L 296.5 281 Q 298.8 280.3 298 282.5 L 300 282.5 L 301.5 285 L 307 287 Q 305.8 290 309.5 289 L 314 291 L 314.5 293 L 317 292 Q 315.9 294.7 318.5 294 L 325 296 Q 323.7 299.3 328.5 298 L 334 300 L 334.5 302 L 337 301 Q 335.8 304 339.5 303 L 348 306.5 L 347.5 308 Q 353.3 308.3 356 311.5 Q 355.2 314.1 358.5 313 Q 359.6 315.8 363 315 L 364.5 318 Q 368.5 317.5 369 320.5 L 369.5 322 Q 370.8 319.8 372 322.5 L 374.5 327 L 376 326.5 L 375.5 328 L 379 330.5 L 380 334 L 383 335.5 L 384.5 339 Q 387.1 338.2 386 341.5 L 388 344.5 L 389 351 Q 392.3 349.7 391 354.5 L 391.5 356 L 390 356.5 L 392 357 L 393 363.5 L 393 365.5 L 394 369.5 L 393 370.5 L 393 380.5 L 393 382.5 L 393 389.5 Q 390.1 393.4 391 400 Q 388.3 398.9 389 401.5 L 388 407 L 386 407 L 386 412 L 384.5 412 Q 381.3 413.2 382 417 L 380 417.5 L 380.5 419 Q 378.3 418.3 379 420.5 L 374 424.5 L 371.5 428 L 369 429.5 Q 370.3 433.3 366.5 432 L 365 435 Q 357.9 436.6 353.5 442 L 349 442 L 347.5 445 L 332 448 L 331.5 450 L 324.5 450 L 323.5 448 Q 359.5 443 377 419.5 Q 385.8 408.8 390 393.5 L 391 380.5 L 392 379.5 L 392 370.5 L 391 369.5 L 391 360.5 L 384 341.5 Q 376.5 329 365.5 320 L 353.5 312 L 303.5 289 L 293 280.5 Q 287.8 275.7 286 267.5 L 285 253.5 Q 288 235.5 300.5 227 L 310.5 221 L 330.5 216 Z " /><path fill="rgb(207,235,63)" stroke="rgb(207,235,63)" stroke-width="1" opacity="0.5254901960784314" d="M 418.5 265 L 422.5 266 L 423.5 265 L 444.5 265 L 457 267 Q 455.6 271 462.5 269 L 471 272 Q 469.7 275.3 474.5 274 L 482 277.5 L 481.5 279 L 489 282 L 490.5 285 L 495 287.5 L 502 297 L 505 298.5 Q 510 302 511.5 309 L 513 308.5 L 516 318 Q 519 316.8 518 320.5 L 523 333.5 L 522 336 Q 525.3 334.7 524 339.5 L 525 340.5 L 525 351.5 L 526 352.5 L 526 364.5 L 525 369.5 L 525 371.5 L 524 381 L 522 381.5 L 523 386 Q 520 384.8 521 388.5 L 519 395 L 517 395.5 L 518 399 L 515 400.5 L 513 405.5 L 513.5 407 Q 510.2 405.9 511 408.5 L 508 415 L 504 417.5 L 498.5 424 Q 496.3 423.3 497 425.5 L 494 430 L 491.5 429 L 489.5 432 L 487 433.5 Q 487.8 435.8 485.5 435 L 480 438.5 Q 480.9 441.5 476.5 440 L 474.5 442 L 468 443 Q 469.1 445.7 466.5 445 L 465 444.5 Q 465.8 446.8 463.5 446 L 453 448 Q 454.4 451.7 448.5 450 Q 446.7 452.7 445 448.5 L 447.5 448 L 449.5 448 Q 485.1 440.1 504 415.5 Q 512.6 405.6 518 392.5 L 524 371.5 L 523 368.5 L 524 367.5 L 524 350.5 L 523 349.5 L 523 340.5 L 517 321.5 L 512 311.5 L 502 297 L 497 293.5 Q 497.8 291.3 495.5 292 L 484.5 282 L 465.5 272 L 444.5 267 L 423.5 267 L 403 272 L 406 290.5 L 406 305 L 414 303 Q 415.1 305.7 412.5 305 L 408 306 Q 409.1 309.3 405 308 Q 406 305 403 306 L 403 301 Q 406.7 302.2 405 297 L 403 296.5 L 403 283.5 L 403 281.5 Q 403.8 277.3 401 276.5 L 401 271.5 L 402.5 270 L 410 269 Q 408.9 265.5 416.5 267 L 418.5 265 Z " /><path fill="rgb(207,235,63)" stroke="rgb(207,235,63)" stroke-width="1" opacity="0.5254901960784314" d="M 428.5 300 Q 431.1 299.2 430 302.5 L 428.5 302 L 426.5 303 L 424.5 302 Q 423 305.5 416.5 304 L 417.5 302 L 428.5 300 Z " /><path fill="rgb(207,235,63)" stroke="rgb(207,235,63)" stroke-width="1" opacity="0.5254901960784314" d="M 432.5 300 L 437 300.5 L 432.5 301 L 432.5 300 Z " /><path fill="rgb(207,235,63)" stroke="rgb(207,235,63)" stroke-width="1" opacity="0.5254901960784314" d="M 439 300 L 445.5 301 L 450 303.5 L 445 304 Q 446.3 301 442.5 302 L 439 303 L 439 300 Z " /><path fill="rgb(207,235,63)" stroke="rgb(207,235,63)" stroke-width="1" opacity="0.5254901960784314" d="M 451 303 Q 468 307.6 478 320.5 L 486 333.5 L 488 341 Q 485.3 342.1 486 339.5 L 482 331.5 L 482.5 330 L 480 328.5 L 479 324 L 476 322.5 L 469.5 315 Q 466.9 315.7 468 313 L 465 313 L 465 311 L 462 311 L 462 309 L 459 309 L 459 307.5 L 457 307.5 Q 457.9 304.1 452.5 306 L 451 303 Z " /><path fill="rgb(207,235,63)" stroke="rgb(207,235,63)" stroke-width="1" opacity="0.5254901960784314" d="M 488.5 342 Q 492.7 350.8 491 365.5 Q 485.9 390.9 468.5 404 Q 458.7 412.2 443.5 415 L 403.5 415 Q 402.3 417.2 397.5 416 L 396 417.5 Q 388.9 432.4 376.5 442 L 368 448.5 L 444 449 L 443.5 451 L 366.5 451 L 364.5 451 Q 361.9 451.8 363 448.5 L 372 443.5 Q 371.3 441.3 373.5 442 L 376 441 Q 374.9 438.3 377.5 439 Q 375.8 437 379.5 435 L 382 436 L 384.5 430 L 387 430 Q 384.9 424.8 389.5 426 L 389 424.5 L 389 423 L 391 423 Q 389.9 420.3 392.5 421 L 393 418.5 L 394.5 416 L 396 416 L 396.5 413 L 442.5 413 L 453 411 L 453.5 409 L 455 409.5 Q 454.2 406.9 457.5 408 L 459 408.5 L 459.5 406 L 461.5 406 L 465 405 Q 463.9 402.3 466.5 403 L 473 398 Q 472 395 475 396 L 475 393 Q 478.7 394.5 478 391.5 L 481.5 385 L 483 385.5 L 482 382.5 L 484 382 L 487 372.5 L 487 367 L 489 366.5 L 489 348 Q 485.7 349.3 487 344.5 L 486.5 343 L 488.5 342 Z " /><path fill="rgb(207,235,63)" stroke="rgb(207,235,63)" stroke-width="1" opacity="0.5254901960784314" d="M 175 449 L 321.5 449 L 322 451 L 175.5 451 L 175 449 Z " /><path fill="rgb(205,251,6)" stroke="rgb(205,251,6)" stroke-width="1" opacity="0.996078431372549" d="M 325.5 180 L 348.5 180 L 369.5 185 L 386.5 193 L 406 207 Q 404.9 209.7 407.5 209 Q 424.2 225.3 433 249.5 L 431.5 251 L 417.5 252 L 397.5 257 Q 390.4 240.1 376.5 230 Q 361 215.5 330.5 216 L 310.5 221 Q 299.8 225.8 293 234.5 Q 284.4 243.4 285 261.5 L 288 273.5 L 294.5 282 L 303.5 289 L 353.5 312 Q 367.4 319.6 377 331.5 L 384 341.5 L 389 353.5 L 391 360.5 L 392 379.5 L 391 380.5 L 390 393.5 L 382 412.5 L 363.5 433 L 340.5 445 L 322.5 449 L 174.5 449 Q 139.5 443 122 419.5 L 115 409.5 L 107 390.5 L 105 379.5 L 105 361.5 L 107 350.5 L 111 339.5 L 122 321 Q 124.7 322.1 124 319.5 L 139.5 306 L 156 297.5 Q 158 280.5 165 268.5 Q 172.8 254.8 184.5 245 L 199.5 235 L 211.5 230 L 218.5 228 L 239 227 L 234 244.5 Q 234.9 254.4 233 260 L 224.5 261 L 216.5 264 Q 206.6 268.6 200 276.5 Q 193.2 283.7 190 294.5 Q 190.6 300.6 188 303.5 L 188 318.5 L 190 325.5 Q 188.8 328.3 187.5 326 L 173.5 327 L 166.5 329 Q 155.4 333.9 148 342.5 Q 137.4 353.9 138 376.5 L 144 393.5 L 152.5 404 Q 160 410.5 170.5 414 L 181.5 416 L 194.5 416 L 196.5 416 Q 202 417.5 203.5 415 L 206.5 416 L 213.5 415 L 215.5 415 L 220.5 416 L 221.5 415 L 235 415 L 234 410.5 L 228 403.5 L 221 390.5 L 214 369.5 L 215.5 368 L 250.5 368 L 253 370.5 Q 255.6 381.1 261 388 Q 263.7 386.9 263 389.5 Q 272.5 401 286.5 408 L 298.5 412 L 317.5 413 Q 319 410.5 324.5 412 L 337.5 407 L 349 396.5 L 355 382.5 L 355 367.5 Q 352 355.5 343.5 349 L 322.5 337 L 288.5 322 Q 274.9 314.6 265 303.5 L 263 300.5 L 257 292.5 L 252 281.5 L 249 268.5 L 249 249.5 L 251 238.5 L 257 223.5 Q 264.4 210.4 275.5 201 Q 286.7 191.7 301.5 186 L 325.5 180 Z M 330 182 L 319 184 L 318 187 L 316 187 L 316 191 L 314 192 Q 310 191 311 187 Q 309 189 304 188 L 302 191 Q 301 193 298 192 L 298 194 L 297 196 L 298 199 L 297 198 Q 294 199 295 196 L 293 195 L 289 196 L 287 199 L 291 200 L 291 201 L 287 199 Q 280 198 279 202 L 280 207 L 275 209 L 274 206 L 273 208 L 273 210 L 270 211 L 272 215 L 269 216 L 269 212 L 264 219 L 266 219 L 266 220 L 264 219 L 261 223 L 261 225 L 260 228 L 258 228 Q 259 231 256 230 L 256 234 Q 259 233 258 236 L 256 237 L 252 245 Q 253 249 251 251 L 252 261 L 256 270 L 254 280 L 256 281 L 259 278 L 261 284 L 260 286 Q 259 289 263 287 L 263 289 L 258 288 Q 257 293 262 294 L 264 293 L 266 295 Q 265 297 268 296 L 272 303 L 271 305 Q 275 306 276 304 Q 275 301 278 302 L 279 300 L 280 303 L 279 305 L 276 304 L 278 310 L 281 308 L 281 304 L 288 304 Q 290 309 285 307 L 281 309 L 282 312 L 292 310 L 291 312 L 292 316 L 297 318 Q 299 317 298 320 L 300 320 L 299 323 L 303 325 L 303 324 L 304 324 L 303 327 L 308 326 L 307 325 L 308 323 L 312 326 L 310 324 L 316 321 L 314 324 L 315 326 L 313 327 L 309 326 L 308 328 L 314 330 L 316 333 Q 322 331 321 335 Q 325 336 324 333 Q 328 332 326 337 L 331 337 L 331 340 L 335 341 L 337 340 L 339 341 L 338 343 L 340 343 Q 341 346 343 342 Q 347 340 346 344 L 353 348 L 355 348 L 356 345 L 357 349 L 357 353 Q 358 356 354 354 L 357 366 L 358 364 Q 360 365 358 367 L 359 369 L 358 371 L 361 370 L 362 372 L 360 371 Q 357 372 358 377 L 358 379 L 357 382 Q 356 385 359 386 Q 362 385 361 388 L 363 390 Q 359 391 360 389 L 358 387 L 355 392 L 355 394 L 354 396 L 349 400 L 350 403 L 346 404 L 346 406 L 345 404 Q 342 406 343 412 L 341 413 Q 342 410 339 411 L 339 409 L 335 409 L 335 411 Q 330 415 320 414 L 316 417 L 309 417 L 289 412 L 288 413 L 283 408 L 282 409 L 278 409 Q 279 406 277 407 Q 273 406 274 402 L 272 403 L 270 402 Q 267 403 268 399 L 263 397 L 257 401 Q 253 399 254 394 Q 253 390 249 391 L 248 387 L 252 385 L 255 391 Q 254 393 257 392 L 260 396 Q 263 396 262 392 L 256 389 L 255 383 Q 254 379 249 380 Q 247 375 253 377 Q 254 374 251 375 L 250 370 L 240 372 Q 234 374 233 371 L 231 372 Q 229 370 228 373 L 224 371 L 220 372 L 222 376 L 220 379 L 222 379 Q 221 383 224 386 L 223 391 L 224 391 Q 223 386 227 388 L 226 394 L 230 395 Q 232 394 231 397 L 232 398 L 229 401 Q 230 404 234 403 L 233 407 Q 234 410 238 409 L 239 414 L 237 418 Q 233 417 234 420 L 233 421 L 235 423 L 227 423 L 230 421 L 229 418 L 225 420 L 224 418 Q 221 417 220 420 L 217 419 L 214 418 L 212 419 L 182 419 L 181 418 L 176 420 L 175 417 L 172 416 L 170 417 Q 165 418 165 415 L 160 417 L 158 415 Q 157 411 152 412 L 154 409 L 153 409 Q 147 410 146 407 L 150 405 L 146 403 L 145 397 L 142 399 L 144 400 L 142 401 Q 139 400 140 395 Q 144 393 141 391 Q 138 392 139 388 L 138 388 L 135 388 L 135 382 Q 131 383 132 381 L 132 379 Q 131 376 136 377 L 137 375 Q 134 376 135 374 L 135 372 Q 134 367 137 366 L 135 362 L 138 351 L 140 352 L 143 347 L 142 344 Q 141 341 144 342 L 146 342 Q 148 343 147 341 L 157 333 L 155 330 L 151 327 L 155 325 L 157 325 L 155 328 L 156 329 L 162 326 L 164 326 L 166 327 L 172 326 L 171 324 L 169 325 L 167 323 L 166 323 L 165 321 L 171 322 L 170 322 L 170 323 Q 173 322 172 325 L 175 324 L 177 325 L 177 324 L 181 321 L 182 324 L 185 323 Q 187 322 185 321 L 186 314 L 185 311 Q 187 312 186 310 L 186 308 L 185 306 L 186 303 Q 182 302 184 307 L 182 307 L 181 303 L 182 299 Q 178 297 181 296 L 181 293 L 184 293 L 184 286 L 181 285 L 182 282 L 189 282 Q 187 287 191 286 L 192 284 L 191 281 Q 187 282 189 277 Q 193 274 192 272 Q 195 273 194 271 Q 195 268 200 269 L 201 265 L 204 264 L 206 265 L 214 261 L 216 261 L 223 260 L 221 259 L 225 256 L 228 257 L 230 254 L 233 242 L 232 238 L 231 240 Q 228 241 229 238 L 234 235 Q 235 232 232 233 L 231 229 Q 228 228 229 231 L 227 229 L 224 232 L 227 236 Q 229 241 226 243 Q 225 245 228 244 L 228 245 L 224 244 L 225 239 L 221 236 L 218 236 L 212 240 Q 209 241 210 238 L 205 239 L 205 237 L 204 241 L 201 242 L 196 241 L 194 245 L 192 246 L 190 245 L 186 247 Q 183 248 185 250 L 182 250 L 184 254 L 182 254 L 177 260 Q 174 259 175 262 L 178 264 Q 177 266 174 265 Q 172 263 171 266 Q 172 269 170 268 L 170 269 Q 172 268 171 271 Q 169 272 172 273 L 174 272 Q 176 273 174 275 L 175 277 L 171 278 L 169 275 L 170 273 L 169 271 L 166 273 Q 165 276 168 275 L 168 278 Q 165 277 166 281 L 166 283 L 165 283 L 162 287 L 163 289 L 163 291 L 163 293 L 159 292 L 159 293 Q 161 292 160 295 Q 161 297 163 295 L 162 297 L 163 299 L 161 300 L 158 299 L 155 303 L 152 302 L 149 305 L 142 308 L 143 310 L 146 308 L 146 310 L 149 308 L 151 309 L 154 304 Q 157 303 156 307 L 153 310 L 152 309 L 149 311 L 151 311 L 149 314 L 144 313 Q 138 311 139 315 L 135 316 L 136 314 L 136 312 L 130 317 L 131 319 L 131 317 L 134 319 L 133 322 L 130 323 L 129 320 L 126 322 L 127 326 Q 123 327 126 329 L 123 330 Q 120 331 121 336 L 119 335 L 115 336 L 113 344 L 114 347 L 113 351 L 110 350 L 109 353 L 112 361 L 108 367 L 109 370 Q 110 373 107 372 L 109 379 Q 107 386 111 385 L 112 381 Q 111 378 114 379 L 115 381 L 112 384 L 112 395 L 115 403 L 116 400 Q 120 399 118 405 L 118 407 L 119 409 L 121 408 L 121 415 L 123 416 L 124 416 L 123 412 L 122 409 L 125 408 L 130 414 L 130 418 L 133 419 Q 134 422 132 423 L 130 420 L 126 417 L 127 419 L 126 421 L 130 426 L 134 426 L 133 425 L 134 423 L 136 424 L 139 423 L 140 424 L 136 426 L 137 428 L 140 429 L 143 429 Q 145 434 142 433 L 143 435 L 147 432 L 150 433 L 149 435 L 152 436 L 153 432 Q 158 431 160 435 Q 162 434 161 437 L 159 436 L 154 437 Q 150 439 155 441 L 157 440 Q 161 438 160 443 L 167 445 L 169 444 L 169 446 L 171 445 L 173 446 L 175 445 L 178 446 L 180 446 L 179 445 L 179 444 L 184 446 L 187 445 L 189 446 L 209 447 L 211 447 Q 215 448 217 446 L 219 447 L 224 446 L 227 447 L 239 447 L 240 446 L 244 446 Q 243 443 246 444 L 246 446 Q 250 447 249 444 L 251 445 L 250 447 L 254 446 L 253 445 L 254 443 L 255 445 L 256 443 L 256 445 L 259 446 L 260 443 L 263 444 L 262 446 L 265 447 L 269 446 L 268 445 L 269 443 L 282 443 L 282 444 L 271 444 L 270 446 L 273 447 L 274 446 L 286 446 L 287 443 Q 292 441 290 447 Q 293 448 292 445 L 296 446 Q 301 448 299 443 Q 304 441 302 447 L 305 446 L 307 447 L 314 446 L 316 444 L 319 446 L 327 445 L 329 443 L 331 444 L 335 443 L 336 444 L 339 441 L 341 442 L 349 437 L 355 436 L 355 434 Q 358 435 357 433 L 357 431 Q 362 433 360 427 L 367 424 L 366 426 L 368 426 L 370 423 L 369 417 Q 367 415 370 414 L 370 417 L 374 416 L 375 418 L 377 417 L 374 411 L 379 407 L 377 405 L 377 404 Q 376 401 380 402 L 381 405 L 384 401 L 382 400 L 385 395 L 384 393 Q 385 389 383 390 L 383 389 Q 386 388 385 392 L 386 392 Q 385 388 388 389 L 388 387 Q 387 384 386 386 L 385 384 L 388 382 L 389 378 L 387 368 Q 386 362 388 361 L 387 358 L 385 357 Q 386 359 384 358 L 384 357 L 383 356 L 383 355 L 385 356 L 386 351 L 383 349 L 380 341 L 376 343 L 377 340 Q 378 336 376 335 Q 373 336 375 338 L 374 340 Q 370 339 371 342 Q 368 341 367 344 L 361 342 L 363 339 L 367 340 L 370 340 L 370 335 L 368 334 Q 365 335 366 331 L 364 332 L 362 332 L 364 329 L 366 330 Q 365 332 368 331 L 369 329 L 368 325 L 366 324 L 365 327 L 363 328 L 361 320 L 358 321 L 355 316 L 352 316 Q 353 313 351 314 L 347 316 L 344 315 L 340 317 L 334 317 Q 335 314 339 315 L 341 315 Q 343 316 342 314 L 346 312 L 338 309 L 334 309 Q 329 310 330 307 L 334 308 L 336 307 L 329 303 Q 326 304 327 301 L 323 301 L 321 301 L 319 302 L 317 302 L 318 300 L 317 300 L 312 298 L 308 299 L 309 297 Q 306 292 300 291 L 298 292 L 299 289 L 295 286 L 292 288 L 295 289 Q 299 288 297 292 L 294 291 L 292 292 L 293 290 L 290 288 L 288 286 L 285 283 L 283 280 L 283 278 L 282 276 L 283 274 L 286 276 Q 287 273 284 274 L 284 271 L 280 269 Q 278 262 284 264 L 281 261 L 284 257 L 283 255 Q 284 248 282 249 L 283 247 L 282 246 L 283 244 L 284 246 L 287 241 L 287 234 L 283 235 L 281 233 L 283 229 L 287 231 L 289 235 L 289 233 L 290 230 L 291 230 L 291 226 L 296 226 L 295 223 L 297 224 L 299 224 L 296 222 L 299 220 L 300 223 L 301 221 L 302 219 L 307 219 L 306 217 L 308 213 L 313 214 L 315 213 L 316 216 L 320 215 L 322 216 Q 328 215 331 211 L 331 213 L 333 212 L 336 214 L 338 213 L 343 215 Q 344 211 346 214 L 350 213 L 353 212 L 357 214 L 361 212 L 361 214 L 362 215 Q 359 214 360 217 L 364 220 Q 368 219 370 222 L 376 225 L 376 227 Q 379 226 378 229 L 381 229 L 380 228 L 382 227 L 383 231 L 385 230 L 393 234 L 395 240 Q 390 242 394 244 Q 399 246 398 242 L 404 240 L 404 243 L 409 245 L 406 245 L 405 248 L 404 247 L 401 244 L 395 246 L 396 249 Q 395 251 400 250 L 401 249 L 404 252 L 409 251 L 408 246 L 411 247 L 413 247 Q 412 244 415 245 L 416 245 L 415 247 L 417 247 L 418 250 Q 423 252 422 248 Q 424 243 426 246 Q 429 245 428 249 L 429 249 Q 430 244 428 243 L 425 244 L 425 241 L 424 243 L 422 241 L 424 237 L 422 235 L 418 236 Q 414 235 415 238 Q 417 239 415 240 L 412 240 L 405 237 L 405 230 L 403 229 L 404 225 L 407 223 L 407 225 Q 409 224 408 228 L 408 230 L 407 233 Q 409 237 411 234 L 414 235 L 415 236 L 415 232 L 410 227 L 410 224 L 413 223 L 411 222 L 409 222 L 408 220 L 411 218 L 410 216 Q 411 212 407 214 L 406 217 L 404 214 Q 401 215 402 211 L 402 209 L 399 207 Q 395 208 397 204 L 395 204 L 393 200 Q 390 201 391 198 L 389 199 L 386 198 L 386 195 L 385 199 L 384 197 Q 383 193 377 194 L 373 190 L 372 191 L 367 189 L 365 186 Q 362 185 363 188 L 359 186 Q 356 185 357 189 L 356 189 Q 357 185 354 186 L 352 186 L 351 185 L 345 182 L 343 182 L 339 183 L 330 182 Z M 350 214 Q 349 216 352 215 L 354 215 Q 356 214 355 217 L 358 217 Q 357 214 360 215 L 360 214 L 357 215 Q 355 213 350 214 Z M 417 227 L 420 231 Q 422 230 420 229 Q 421 226 417 227 Z M 214 232 L 213 233 Q 209 232 210 235 L 208 235 L 208 236 L 217 235 L 218 234 Q 219 230 214 232 Z M 386 233 L 384 235 L 389 239 L 391 238 L 390 235 Q 391 232 388 233 L 386 233 Z M 198 238 L 198 239 L 200 239 L 198 238 Z M 197 272 L 194 273 L 193 276 L 195 281 L 198 275 L 201 274 Q 200 271 197 272 Z M 293 282 L 291 285 L 293 286 L 293 282 Z M 259 283 L 257 285 L 259 285 L 259 283 Z M 184 295 L 182 297 L 184 297 L 184 295 Z M 186 298 L 185 301 L 186 301 L 186 298 Z M 141 309 L 140 312 L 141 312 L 141 309 Z M 283 314 Q 281 317 284 316 Q 285 318 286 316 L 283 314 Z M 292 316 Q 289 318 292 319 Q 295 318 292 316 Z M 123 324 L 123 326 Q 121 327 124 328 L 125 326 Q 126 323 123 324 Z M 121 328 L 121 331 Q 124 330 121 328 Z M 160 328 L 160 331 L 162 330 L 160 328 Z M 373 331 L 374 333 Q 375 330 373 331 Z M 344 343 L 342 345 L 346 348 L 345 345 Q 346 342 344 343 Z M 219 371 Q 217 374 220 373 L 219 371 Z M 135 378 L 133 380 L 136 380 L 137 383 L 137 382 L 137 380 Q 138 377 135 378 Z M 381 408 L 380 411 L 381 411 L 381 408 Z M 158 411 Q 157 414 160 413 Q 161 410 158 411 Z " /><path fill="rgb(205,251,6)" stroke="rgb(205,251,6)" stroke-width="1" opacity="0.996078431372549" d="M 343 188 Q 346 187 345 190 Q 342 191 343 188 Z " /><path fill="rgb(205,251,6)" stroke="rgb(205,251,6)" stroke-width="1" opacity="0.996078431372549" d="M 308 190 L 310 190.5 L 308 191.5 L 308 190 Z " /><path fill="rgb(205,251,6)" stroke="rgb(205,251,6)" stroke-width="1" opacity="0.996078431372549" d="M 315.5 193 L 317.5 194 L 320.5 193 Q 323.5 194.5 320.5 196 L 314 194.5 L 315.5 193 Z " /><path fill="rgb(205,251,6)" stroke="rgb(205,251,6)" stroke-width="1" opacity="0.996078431372549" d="M 303 194 L 307 195.5 L 306.5 198 L 303 197 L 303 194 Z " /><path fill="rgb(205,251,6)" stroke="rgb(205,251,6)" stroke-width="1" opacity="0.996078431372549" d="M 339.5 204 L 342 205.5 L 340.5 206 L 339.5 204 Z " /><path fill="rgb(205,251,6)" stroke="rgb(205,251,6)" stroke-width="1" opacity="0.996078431372549" d="M 275 211 Q 278.8 209.5 278 212.5 L 279 215 L 282 216.5 Q 283.1 219.8 280.5 219 L 279 216 Q 276.3 217.1 277 214.5 L 275 211 Z " /><path fill="rgb(205,251,6)" stroke="rgb(205,251,6)" stroke-width="1" opacity="0.996078431372549" d="M 317.5 211 L 320.5 213 L 321.5 211 L 323 213.5 L 320.5 214 L 317 212.5 L 317.5 211 Z " /><path fill="rgb(205,251,6)" stroke="rgb(205,251,6)" stroke-width="1" opacity="0.996078431372549" d="M 269.5 217 L 270 220 L 267.5 221 L 269 218.5 L 269.5 217 Z " /><path fill="rgb(205,251,6)" stroke="rgb(205,251,6)" stroke-width="1" opacity="0.996078431372549" d="M 402 217 Q 404.7 215.9 404 218.5 Q 407.8 220.3 404.5 222 Q 401.9 221.3 403 224 L 400 224 Q 398.3 219.9 402.5 221 L 402 219.5 L 402 217 Z " /><path fill="rgb(205,251,6)" stroke="rgb(205,251,6)" stroke-width="1" opacity="0.996078431372549" d="M 278.5 219 L 279 220.5 Q 277.5 223.5 276 220.5 L 278.5 219 Z " /><path fill="rgb(205,251,6)" stroke="rgb(205,251,6)" stroke-width="1" opacity="0.996078431372549" d="M 284.5 221 Q 288.3 220.3 289 222.5 Q 289.9 225.9 284.5 224 Q 281.5 222.5 284.5 221 Z " /><path fill="rgb(205,251,6)" stroke="rgb(205,251,6)" stroke-width="1" opacity="0.996078431372549" d="M 385.5 222 L 386.5 224 Q 383.7 224.7 385.5 222 Z " /><path fill="rgb(205,251,6)" stroke="rgb(205,251,6)" stroke-width="1" opacity="0.996078431372549" d="M 393 222 Q 396 220.8 395 224.5 L 395 226.5 L 394.5 228 L 393 222 Z " /><path fill="rgb(205,251,6)" stroke="rgb(205,251,6)" stroke-width="1" opacity="0.996078431372549" d="M 399.5 229 L 402 230.5 L 398.5 231 L 399.5 229 Z " /><path fill="rgb(205,251,6)" stroke="rgb(205,251,6)" stroke-width="1" opacity="0.996078431372549" d="M 254 243 Q 258.5 241.3 257 246.5 Q 260.3 247.8 259 253.5 L 257.5 253 Q 254.9 253.8 256 250.5 Q 253 248.3 254 243 Z " /><path fill="rgb(205,251,6)" stroke="rgb(205,251,6)" stroke-width="1" opacity="0.996078431372549" d="M 200.5 244 L 201 250.5 L 200 250.5 L 199 246.5 L 200.5 244 Z " /><path fill="rgb(205,251,6)" stroke="rgb(205,251,6)" stroke-width="1" opacity="0.996078431372549" d="M 190.5 248 Q 194.7 246.7 193 251.5 L 194 253.5 L 192.5 253 L 189.5 255 L 185 254 L 185 252 L 188 252 Q 186.8 249 190.5 250 L 190.5 248 Z " /><path fill="rgb(205,251,6)" stroke="rgb(205,251,6)" stroke-width="1" opacity="0.996078431372549" d="M 225.5 248 L 228 248.5 L 225.5 249 L 225.5 248 Z " /><path fill="rgb(205,251,6)" stroke="rgb(205,251,6)" stroke-width="1" opacity="0.996078431372549" d="M 200.5 252 L 199.5 254 L 200.5 252 Z " /><path fill="rgb(205,251,6)" stroke="rgb(205,251,6)" stroke-width="1" opacity="0.996078431372549" d="M 275.5 252 L 277 253.5 L 277 261 L 275 260.5 L 275.5 252 Z " /><path fill="rgb(205,251,6)" stroke="rgb(205,251,6)" stroke-width="1" opacity="0.996078431372549" d="M 199.5 255 L 201 257.5 Q 198 258.8 199 263 L 193.5 261 L 192 264 Q 189 262.8 190 266.5 L 188 267.5 L 190 263.5 L 189 260.5 L 191.5 260 L 199 257 L 199.5 255 Z " /><path fill="rgb(205,251,6)" stroke="rgb(205,251,6)" stroke-width="1" opacity="0.996078431372549" d="M 260.5 255 L 261 256.5 L 260.5 258 Q 263.9 257.1 262 262.5 L 259 260.5 Q 258 256 260.5 255 Z " /><path fill="rgb(205,251,6)" stroke="rgb(205,251,6)" stroke-width="1" opacity="0.996078431372549" d="M 181 261 L 184 262.5 Q 184.9 265.5 180.5 264 L 181 262.5 L 181 261 Z " /><path fill="rgb(205,251,6)" stroke="rgb(205,251,6)" stroke-width="1" opacity="0.996078431372549" d="M 260.5 265 L 262 268 Q 258.2 269.5 259 266.5 L 260.5 265 Z " /><path fill="rgb(205,251,6)" stroke="rgb(205,251,6)" stroke-width="1" opacity="0.996078431372549" d="M 423.5 267 L 444.5 267 L 465.5 272 L 481.5 280 L 497 292 L 500.5 297 Q 502.8 296.3 502 298.5 L 512 311.5 L 521 332.5 L 523 340.5 L 523 349.5 L 524 350.5 L 524 367.5 L 523 368.5 L 522 380.5 L 512 404.5 Q 503.1 418.6 490.5 429 L 469.5 442 L 444.5 449 L 368.5 449 L 369.5 447 L 388 430.5 L 397.5 416 Q 402.3 417.2 403.5 415 L 443.5 415 L 448.5 414 Q 468.3 408.3 479 393.5 Q 492 379 491 350.5 Q 486.8 326.8 471.5 314 Q 457.3 299.7 428.5 300 L 416.5 303 L 411.5 303 L 406 305 L 406 290.5 L 403 272 L 423.5 267 Z M 435 270 L 432 271 L 430 271 L 428 272 L 424 271 L 423 273 L 420 271 Q 415 270 414 273 L 416 277 L 414 280 L 410 275 Q 411 271 407 273 L 406 276 L 410 287 L 408 298 L 410 301 L 410 299 L 412 299 L 412 297 L 415 297 Q 413 301 418 300 L 421 296 L 422 299 L 433 297 L 435 298 L 435 296 Q 438 295 437 298 L 447 297 L 446 299 L 449 300 L 449 299 L 449 297 Q 452 301 457 301 L 458 303 L 458 302 L 461 303 L 463 302 L 465 303 L 463 306 L 473 311 Q 475 310 474 313 L 476 313 L 476 316 L 479 317 L 478 316 L 479 314 L 483 317 L 483 319 Q 479 317 480 321 Q 482 325 484 322 L 483 324 L 484 327 L 487 328 L 487 326 Q 489 325 488 328 L 490 327 L 491 327 L 491 321 L 493 321 Q 495 322 494 327 L 488 329 L 487 332 Q 486 334 489 333 L 492 346 L 491 348 L 492 350 L 492 352 Q 491 357 493 359 Q 492 361 495 360 L 496 363 Q 497 367 495 369 L 496 373 L 495 375 L 495 377 Q 494 382 496 384 L 495 387 Q 498 388 497 385 L 498 385 L 498 392 L 496 392 L 497 390 L 494 387 L 493 380 L 494 378 L 488 381 L 490 381 L 492 385 L 490 388 Q 487 387 488 390 L 486 390 L 486 392 L 483 393 L 478 399 L 478 401 L 476 402 L 478 402 Q 482 404 479 406 L 472 404 L 472 406 L 467 409 Q 463 408 464 412 L 456 418 Q 452 419 453 416 L 448 417 L 453 420 L 449 422 L 442 418 L 438 418 L 432 420 L 428 419 L 426 419 L 424 420 L 423 418 L 418 419 L 414 419 L 410 418 L 405 419 L 403 419 L 400 418 L 397 423 Q 398 425 396 424 L 394 427 L 390 429 L 391 432 L 390 432 L 390 434 L 388 438 L 386 439 Q 381 438 382 441 L 384 442 L 383 442 Q 381 440 380 443 L 383 444 L 377 446 L 377 447 Q 382 449 381 445 L 384 446 Q 386 447 385 445 L 386 445 L 387 446 L 400 446 L 402 446 L 404 447 L 408 446 Q 414 444 416 447 L 417 446 L 443 446 L 444 444 L 444 446 L 449 446 L 448 444 L 447 444 L 445 444 Q 447 439 449 442 L 453 441 L 455 444 L 457 443 L 459 444 L 459 441 L 463 441 L 461 440 L 465 439 Q 464 436 467 435 L 466 432 L 474 431 L 472 437 L 479 434 L 476 432 Q 477 428 481 429 L 482 426 L 484 429 L 486 428 L 488 429 L 493 425 L 490 422 Q 490 415 495 413 Q 497 414 496 412 L 499 411 L 504 412 L 507 404 L 510 401 Q 509 393 512 390 Q 509 388 510 384 Q 511 381 513 383 Q 515 382 514 385 L 516 385 L 517 388 L 518 382 L 517 377 L 521 371 L 519 364 L 522 362 Q 523 354 521 350 L 519 351 L 517 349 Q 516 344 519 343 L 518 337 L 516 337 L 517 334 Q 521 332 517 330 Q 518 325 516 326 Q 514 328 513 326 L 514 323 L 514 321 L 509 311 L 508 313 L 508 315 Q 507 317 510 316 L 511 321 L 507 321 L 507 320 L 508 317 L 505 314 L 503 315 L 502 313 L 505 311 L 503 309 L 505 308 L 505 307 L 503 307 L 503 303 L 500 303 L 497 305 Q 498 302 495 303 L 498 298 Q 499 295 496 296 L 494 294 L 491 296 L 492 298 L 490 298 L 489 301 L 487 300 L 483 295 L 483 291 Q 485 287 487 291 L 488 289 L 487 288 L 485 288 L 483 288 L 484 286 Q 484 283 480 283 L 478 283 L 475 281 Q 476 278 472 279 L 471 282 L 469 282 L 471 279 L 469 277 L 469 279 L 467 280 L 467 278 L 465 279 L 463 279 L 465 276 L 461 273 L 459 274 Q 452 275 449 273 L 449 272 L 444 270 Q 439 269 438 271 L 435 270 Z M 488 291 L 485 295 L 489 295 L 490 293 L 488 291 Z M 520 344 L 521 346 Q 522 343 520 344 Z M 493 372 L 494 374 Q 495 371 493 372 Z M 500 413 L 499 416 Q 496 417 497 415 L 495 416 L 497 419 Q 499 420 498 417 L 500 417 L 500 413 Z " /><path fill="rgb(205,251,6)" stroke="rgb(205,251,6)" stroke-width="1" opacity="0.996078431372549" d="M 179 268 Q 181.7 266.9 181 269.5 L 184 273.5 L 180 276 L 178 270.5 L 179 268 Z " /><path fill="rgb(205,251,6)" stroke="rgb(205,251,6)" stroke-width="1" opacity="0.996078431372549" d="M 259.5 269 Q 263.3 268 262 271 L 259.5 269 Z " /><path fill="rgb(205,251,6)" stroke="rgb(205,251,6)" stroke-width="1" opacity="0.996078431372549" d="M 420 278 Q 424.5 276.5 423 281 Q 418.5 282.5 420 278 Z " /><path fill="rgb(205,251,6)" stroke="rgb(205,251,6)" stroke-width="1" opacity="0.996078431372549" d="M 283 284 L 285 284 Q 283.9 286.7 286.5 286 L 286.5 287 L 283 286 L 283 284 Z " /><path fill="rgb(205,251,6)" stroke="rgb(205,251,6)" stroke-width="1" opacity="0.996078431372549" d="M 418.5 285 L 420 288 Q 416.5 289.1 418.5 285 Z " /><path fill="rgb(205,251,6)" stroke="rgb(205,251,6)" stroke-width="1" opacity="0.996078431372549" d="M 439.5 287 L 443 288.5 L 440.5 289 L 439.5 287 Z " /><path fill="rgb(205,251,6)" stroke="rgb(205,251,6)" stroke-width="1" opacity="0.996078431372549" d="M 282.5 291 Q 288.3 291.3 291 294.5 L 288.5 298 L 285 297 L 283.5 294 L 281 292.5 L 282.5 291 Z " /><path fill="rgb(205,251,6)" stroke="rgb(205,251,6)" stroke-width="1" opacity="0.996078431372549" d="M 175.5 292 L 176 319.5 L 175 319.5 L 175.5 292 Z " /><path fill="rgb(205,251,6)" stroke="rgb(205,251,6)" stroke-width="1" opacity="0.996078431372549" d="M 294 297 L 300 299.5 L 300 302 L 294 302 L 294 297 Z " /><path fill="rgb(205,251,6)" stroke="rgb(205,251,6)" stroke-width="1" opacity="0.996078431372549" d="M 307 300 L 310 301.5 L 307 302 L 307 300 Z " /><path fill="rgb(205,251,6)" stroke="rgb(205,251,6)" stroke-width="1" opacity="0.996078431372549" d="M 470.5 302 L 477 304 Q 478.6 308.9 473 307 Q 474.5 303.2 471.5 304 L 470.5 302 Z " /><path fill="rgb(205,251,6)" stroke="rgb(205,251,6)" stroke-width="1" opacity="0.996078431372549" d="M 294.5 306 L 297 307 L 295.5 310 L 293 308.5 L 294.5 306 Z " /><path fill="rgb(205,251,6)" stroke="rgb(205,251,6)" stroke-width="1" opacity="0.996078431372549" d="M 298 310 L 302 310 L 302 311.5 L 303 315 L 300.5 316 Q 297 314.7 298 310 Z " /><path fill="rgb(205,251,6)" stroke="rgb(205,251,6)" stroke-width="1" opacity="0.996078431372549" d="M 321 310 L 326 310.5 L 325 312.5 Q 327.3 313.8 324.5 315 L 321 313.5 L 321 310 Z " /><path fill="rgb(205,251,6)" stroke="rgb(205,251,6)" stroke-width="1" opacity="0.996078431372549" d="M 157 312 Q 163 310 161 316 L 157 315 L 157 312 Z " /><path fill="rgb(205,251,6)" stroke="rgb(205,251,6)" stroke-width="1" opacity="0.996078431372549" d="M 181 316 L 183 316.5 L 181.5 320 L 181 316 Z " /><path fill="rgb(205,251,6)" stroke="rgb(205,251,6)" stroke-width="1" opacity="0.996078431372549" d="M 140.5 318 L 146 322.5 L 143.5 323 L 138 322 L 140.5 318 Z " /><path fill="rgb(205,251,6)" stroke="rgb(205,251,6)" stroke-width="1" opacity="0.996078431372549" d="M 342.5 320 L 345 321.5 L 338.5 322 L 338.5 321 L 342.5 320 Z " /><path fill="rgb(205,251,6)" stroke="rgb(205,251,6)" stroke-width="1" opacity="0.996078431372549" d="M 353 320 Q 356 319 355 322 Q 352 323 353 320 Z " /><path fill="rgb(205,251,6)" stroke="rgb(205,251,6)" stroke-width="1" opacity="0.996078431372549" d="M 145 324 Q 148.3 322.9 147 327 Q 143.7 328.1 145 324 Z " /><path fill="rgb(205,251,6)" stroke="rgb(205,251,6)" stroke-width="1" opacity="0.996078431372549" d="M 323.5 324 L 334 326.5 L 327 329 Q 328.3 325.7 323.5 327 Q 321.9 331.3 316 330 Q 314.3 325.9 318.5 327 L 323.5 324 Z " /><path fill="rgb(205,251,6)" stroke="rgb(205,251,6)" stroke-width="1" opacity="0.996078431372549" d="M 145 330 L 151 330 L 151 332.5 L 152.5 332 L 154 332.5 Q 153.5 335.5 149.5 335 Q 148.4 332.3 145 333 L 145 330 Z " /><path fill="rgb(205,251,6)" stroke="rgb(205,251,6)" stroke-width="1" opacity="0.996078431372549" d="M 340.5 330 Q 343.1 329.3 342 332 L 339 331.5 L 340.5 330 Z " /><path fill="rgb(205,251,6)" stroke="rgb(205,251,6)" stroke-width="1" opacity="0.996078431372549" d="M 327 332 Q 331.5 330.5 330 335 L 327 333.5 L 327 332 Z " /><path fill="rgb(205,251,6)" stroke="rgb(205,251,6)" stroke-width="1" opacity="0.996078431372549" d="M 497.5 332 L 498 336.5 L 496 335.5 L 497.5 332 Z " /><path fill="rgb(205,251,6)" stroke="rgb(205,251,6)" stroke-width="1" opacity="0.996078431372549" d="M 506 333 L 508 333 L 508 338 L 506 338 L 506 333 Z " /><path fill="rgb(205,251,6)" stroke="rgb(205,251,6)" stroke-width="1" opacity="0.996078431372549" d="M 141.5 334 L 144 339 L 140 338 L 141.5 334 Z " /><path fill="rgb(205,251,6)" stroke="rgb(205,251,6)" stroke-width="1" opacity="0.996078431372549" d="M 333 335 Q 336 334 335 337 Q 332 338 333 335 Z " /><path fill="rgb(205,251,6)" stroke="rgb(205,251,6)" stroke-width="1" opacity="0.996078431372549" d="M 494.5 339 Q 497.1 342.6 496 349 L 493 347.5 Q 492.3 341.8 494.5 339 Z " /><path fill="rgb(205,251,6)" stroke="rgb(205,251,6)" stroke-width="1" opacity="0.996078431372549" d="M 115.5 341 Q 117.8 340.3 117 342.5 L 118 347.5 L 116.5 351 L 116 345.5 L 117 343.5 L 115.5 341 Z " /><path fill="rgb(205,251,6)" stroke="rgb(205,251,6)" stroke-width="1" opacity="0.996078431372549" d="M 134.5 341 Q 136.8 341.8 136 345.5 L 135 348 L 131 345.5 L 132.5 342 L 134.5 341 Z " /><path fill="rgb(205,251,6)" stroke="rgb(205,251,6)" stroke-width="1" opacity="0.996078431372549" d="M 358 342 L 363 345.5 Q 363.8 348.1 360.5 347 L 359.5 344 Q 356.9 344.7 358 342 Z " /><path fill="rgb(205,251,6)" stroke="rgb(205,251,6)" stroke-width="1" opacity="0.996078431372549" d="M 119.5 353 L 121 353 L 121 358 L 118 356.5 L 119.5 353 Z " /><path fill="rgb(205,251,6)" stroke="rgb(205,251,6)" stroke-width="1" opacity="0.996078431372549" d="M 360.5 355 L 363 356 L 363 359 Q 360.3 357.9 361 360.5 L 360 363 Q 357 364 358 361 L 360 360.5 L 360 356.5 L 360.5 355 Z " /><path fill="rgb(205,251,6)" stroke="rgb(205,251,6)" stroke-width="1" opacity="0.996078431372549" d="M 383.5 360 L 386 360.5 Q 383.9 363.8 383.5 360 Z " /><path fill="rgb(205,251,6)" stroke="rgb(205,251,6)" stroke-width="1" opacity="0.996078431372549" d="M 501 362 L 506 362 L 506 363.5 L 506 365.5 L 506 367 Q 502.3 365.5 503 368.5 L 503.5 370 L 501 368.5 L 502 364.5 L 501 362 Z " /><path fill="rgb(205,251,6)" stroke="rgb(205,251,6)" stroke-width="1" opacity="0.996078431372549" d="M 116 365 Q 120 363.6 118 370.5 L 116 369.5 L 116 365 Z " /><path fill="rgb(205,251,6)" stroke="rgb(205,251,6)" stroke-width="1" opacity="0.996078431372549" d="M 513 366 Q 515.7 364.9 515 367.5 L 514 370.5 L 515.5 374 L 516.5 372 L 517 373.5 L 513.5 378 L 510 375.5 L 512 372.5 L 511 370.5 L 513 366 Z M 513 374 L 513 376 L 515 375 L 513 374 Z " /><path fill="rgb(205,251,6)" stroke="rgb(205,251,6)" stroke-width="1" opacity="0.996078431372549" d="M 127.5 368 L 129 372.5 L 127 373.5 L 126 370.5 L 127.5 368 Z " /><path fill="rgb(205,251,6)" stroke="rgb(205,251,6)" stroke-width="1" opacity="0.996078431372549" d="M 498.5 371 L 500 371.5 L 497 373.5 L 498.5 371 Z " /><path fill="rgb(205,251,6)" stroke="rgb(205,251,6)" stroke-width="1" opacity="0.996078431372549" d="M 245 372 Q 249.5 370.3 248 375.5 L 247 378.5 Q 248 383 245.5 384 Q 242.8 384.6 244 378.5 Q 247.5 377 245 375.5 L 245 372 Z " /><path fill="rgb(205,251,6)" stroke="rgb(205,251,6)" stroke-width="1" opacity="0.996078431372549" d="M 121.5 379 L 122 385.5 L 120.5 388 Q 117.5 386.4 119 381 Q 121.8 382 121.5 379 Z " /><path fill="rgb(205,251,6)" stroke="rgb(205,251,6)" stroke-width="1" opacity="0.996078431372549" d="M 234.5 383 Q 236.8 382.3 236 384.5 L 234.5 383 Z " /><path fill="rgb(205,251,6)" stroke="rgb(205,251,6)" stroke-width="1" opacity="0.996078431372549" d="M 116 388 L 118 388 L 118 393 L 116 393 L 116 388 Z " /><path fill="rgb(205,251,6)" stroke="rgb(205,251,6)" stroke-width="1" opacity="0.996078431372549" d="M 503.5 390 L 504 392.5 L 503 392.5 L 503.5 390 Z " /><path fill="rgb(205,251,6)" stroke="rgb(205,251,6)" stroke-width="1" opacity="0.996078431372549" d="M 242 392 Q 244.7 390.9 244 393.5 L 244 395.5 L 245 397.5 L 243.5 398 Q 240.8 396.6 242 392 Z " /><path fill="rgb(205,251,6)" stroke="rgb(205,251,6)" stroke-width="1" opacity="0.996078431372549" d="M 496 395 Q 499 393.8 498 397.5 L 497 400.5 L 498 403 L 494 405 L 496 395 Z " /><path fill="rgb(205,251,6)" stroke="rgb(205,251,6)" stroke-width="1" opacity="0.996078431372549" d="M 238.5 397 L 239 401.5 L 237.5 404 L 236 400.5 L 238.5 397 Z " /><path fill="rgb(205,251,6)" stroke="rgb(205,251,6)" stroke-width="1" opacity="0.996078431372549" d="M 358.5 397 L 359.5 399 L 357 398.5 L 358.5 397 Z " /><path fill="rgb(205,251,6)" stroke="rgb(205,251,6)" stroke-width="1" opacity="0.996078431372549" d="M 245 399 Q 248.8 398 250 400.5 Q 250.8 402.8 248.5 402 L 246.5 403 L 245 399 Z " /><path fill="rgb(205,251,6)" stroke="rgb(205,251,6)" stroke-width="1" opacity="0.996078431372549" d="M 263.5 399 L 265 401.5 Q 263.5 404.5 262 401.5 L 263.5 399 Z " /><path fill="rgb(205,251,6)" stroke="rgb(205,251,6)" stroke-width="1" opacity="0.996078431372549" d="M 353.5 400 L 354 403 Q 351.3 404.1 352 401.5 L 353.5 400 Z " /><path fill="rgb(205,251,6)" stroke="rgb(205,251,6)" stroke-width="1" opacity="0.996078431372549" d="M 128.5 402 Q 132.7 400.9 131 405 L 126 405 L 126 403 L 128.5 402 Z " /><path fill="rgb(205,251,6)" stroke="rgb(205,251,6)" stroke-width="1" opacity="0.996078431372549" d="M 362.5 402 Q 364.8 401.3 364 403.5 L 366 406.5 L 363.5 405 Q 360.2 406.1 361 403.5 L 362.5 402 Z " /><path fill="rgb(205,251,6)" stroke="rgb(205,251,6)" stroke-width="1" opacity="0.996078431372549" d="M 483.5 402 Q 486.8 400.9 486 403.5 L 483.5 405 Q 480.5 403.5 483.5 402 Z " /><path fill="rgb(205,251,6)" stroke="rgb(205,251,6)" stroke-width="1" opacity="0.996078431372549" d="M 133 405 Q 137.9 404.9 140 408.5 L 138 412 L 135 412 Q 136 409 133 410 L 133 405 Z " /><path fill="rgb(205,251,6)" stroke="rgb(205,251,6)" stroke-width="1" opacity="0.996078431372549" d="M 373.5 406 L 374 407.5 L 372 408.5 L 373.5 406 Z " /><path fill="rgb(205,251,6)" stroke="rgb(205,251,6)" stroke-width="1" opacity="0.996078431372549" d="M 240.5 407 L 241.5 409 Q 238.7 409.7 240.5 407 Z " /><path fill="rgb(205,251,6)" stroke="rgb(205,251,6)" stroke-width="1" opacity="0.996078431372549" d="M 470.5 407 L 471.5 409 L 472.5 407 L 474.5 407 L 476 407 L 476 411 L 470.5 413 L 468.5 413 L 466 411.5 L 471 409.5 L 469 408.5 L 470.5 407 Z " /><path fill="rgb(205,251,6)" stroke="rgb(205,251,6)" stroke-width="1" opacity="0.996078431372549" d="M 482.5 410 L 483 413.5 L 479 415 Q 480 418.8 477.5 420 L 475 418.5 Q 473.5 414.1 476.5 415 L 482.5 410 Z " /><path fill="rgb(205,251,6)" stroke="rgb(205,251,6)" stroke-width="1" opacity="0.996078431372549" d="M 144.5 411 L 151 415.5 L 150.5 418 L 149 415 Q 146.3 416.1 147 413.5 L 144.5 413 L 143 412.5 L 144.5 411 Z " /><path fill="rgb(205,251,6)" stroke="rgb(205,251,6)" stroke-width="1" opacity="0.996078431372549" d="M 337.5 412 L 338.5 414 L 337.5 412 Z " /><path fill="rgb(205,251,6)" stroke="rgb(205,251,6)" stroke-width="1" opacity="0.996078431372549" d="M 137 415 L 141.5 416 L 144 415 L 142.5 418 Q 139.9 417.3 141 420 L 138.5 420 Q 136 418.8 137 415 Z " /><path fill="rgb(205,251,6)" stroke="rgb(205,251,6)" stroke-width="1" opacity="0.996078431372549" d="M 240.5 415 Q 243 416.2 242 420 L 238 418.5 L 240.5 415 Z " /><path fill="rgb(205,251,6)" stroke="rgb(205,251,6)" stroke-width="1" opacity="0.996078431372549" d="M 325.5 415 Q 331.5 414 333.5 417 L 338.5 415 L 338 416.5 L 336.5 420 L 332.5 421 Q 331.8 418.3 327.5 419 L 322 421 L 322 417 L 323.5 417 L 325.5 415 Z " /><path fill="rgb(205,251,6)" stroke="rgb(205,251,6)" stroke-width="1" opacity="0.996078431372549" d="M 294.5 417 L 300 418.5 Q 299.3 420.8 295.5 420 L 293 418.5 L 294.5 417 Z " /><path fill="rgb(205,251,6)" stroke="rgb(205,251,6)" stroke-width="1" opacity="0.996078431372549" d="M 467.5 417 L 471 418.5 L 470 422 L 465 422 L 465 419.5 L 467.5 417 Z " /><path fill="rgb(205,251,6)" stroke="rgb(205,251,6)" stroke-width="1" opacity="0.996078431372549" d="M 147.5 418 L 148 420 L 146 419.5 L 147.5 418 Z " /><path fill="rgb(205,251,6)" stroke="rgb(205,251,6)" stroke-width="1" opacity="0.996078431372549" d="M 460.5 418 L 463 419.5 L 462 423 Q 459.3 424.1 460 421.5 L 459 419.5 L 460.5 418 Z " /><path fill="rgb(205,251,6)" stroke="rgb(205,251,6)" stroke-width="1" opacity="0.996078431372549" d="M 483 418 Q 486.3 416.9 485 421 Q 481.7 422.1 483 418 Z " /><path fill="rgb(205,251,6)" stroke="rgb(205,251,6)" stroke-width="1" opacity="0.996078431372549" d="M 361 419 L 365 420.5 L 363.5 423 L 361.5 422 L 360 422.5 L 361 419 Z " /><path fill="rgb(205,251,6)" stroke="rgb(205,251,6)" stroke-width="1" opacity="0.996078431372549" d="M 149 420 Q 155.1 418.3 157 421.5 Q 157.6 424.3 151.5 423 L 149 422 L 149 420 Z " /><path fill="rgb(205,251,6)" stroke="rgb(205,251,6)" stroke-width="1" opacity="0.996078431372549" d="M 168.5 420 L 171 421.5 L 167.5 423 L 166.5 421 L 168.5 420 Z " /><path fill="rgb(205,251,6)" stroke="rgb(205,251,6)" stroke-width="1" opacity="0.996078431372549" d="M 401.5 420 L 401 421.5 L 400.5 423 L 400 421.5 L 401.5 420 Z " /><path fill="rgb(205,251,6)" stroke="rgb(205,251,6)" stroke-width="1" opacity="0.996078431372549" d="M 143.5 421 L 146.5 425 Q 150.3 424.3 151 426.5 Q 150 429 145.5 428 L 143 427 L 144 423 L 141.5 424 L 143.5 421 Z " /><path fill="rgb(205,251,6)" stroke="rgb(205,251,6)" stroke-width="1" opacity="0.996078431372549" d="M 433.5 421 L 436 422.5 L 433 423 L 433.5 421 Z " /><path fill="rgb(205,251,6)" stroke="rgb(205,251,6)" stroke-width="1" opacity="0.996078431372549" d="M 477.5 422 L 481 423.5 L 476.5 426 L 473 424.5 L 477.5 422 Z " /><path fill="rgb(205,251,6)" stroke="rgb(205,251,6)" stroke-width="1" opacity="0.996078431372549" d="M 488.5 422 L 489.5 424 L 486.5 426 L 486 424 L 484 423.5 L 485.5 423 L 488 424 L 488.5 422 Z " /><path fill="rgb(205,251,6)" stroke="rgb(205,251,6)" stroke-width="1" opacity="0.996078431372549" d="M 341 423 L 347 423 L 347 425.5 L 345.5 425 Q 339.6 426.7 341 423 Z " /><path fill="rgb(205,251,6)" stroke="rgb(205,251,6)" stroke-width="1" opacity="0.996078431372549" d="M 157.5 425 Q 161.3 424.3 162 426.5 L 160.5 430 L 156 426.5 L 157.5 425 Z " /><path fill="rgb(205,251,6)" stroke="rgb(205,251,6)" stroke-width="1" opacity="0.996078431372549" d="M 463 425 L 469 426.5 L 463 428 L 463 425 Z " /><path fill="rgb(205,251,6)" stroke="rgb(205,251,6)" stroke-width="1" opacity="0.996078431372549" d="M 398 426 L 402 427 Q 403.5 431.5 399 430 L 398 426 Z " /><path fill="rgb(205,251,6)" stroke="rgb(205,251,6)" stroke-width="1" opacity="0.996078431372549" d="M 352 429 Q 355 428 354 431 Q 351 432 352 429 Z " /><path fill="rgb(205,251,6)" stroke="rgb(205,251,6)" stroke-width="1" opacity="0.996078431372549" d="M 346.5 431 L 351 432 Q 352.1 434.7 349.5 434 L 345.5 436 L 346 434.5 L 346.5 431 Z " /><path fill="rgb(205,251,6)" stroke="rgb(205,251,6)" stroke-width="1" opacity="0.996078431372549" d="M 395 433 Q 399.1 431.7 398 435 Q 393.9 436.3 395 433 Z " /><path fill="rgb(205,251,6)" stroke="rgb(205,251,6)" stroke-width="1" opacity="0.996078431372549" d="M 401.5 437 Q 404.1 436.3 403 439 L 400 438.5 L 401.5 437 Z " /><path fill="rgb(205,251,6)" stroke="rgb(205,251,6)" stroke-width="1" opacity="0.996078431372549" d="M 393.5 438 L 394 439.5 L 391 441 Q 389.9 438.3 392.5 439 L 393.5 438 Z " /><path fill="rgb(185,216,14)" stroke="rgb(185,216,14)" stroke-width="1" opacity="0.5764705882352941" d="M 404.5 203 L 408.5 208 L 404.5 203 Z " /><path fill="rgb(185,216,14)" stroke="rgb(185,216,14)" stroke-width="1" opacity="0.5764705882352941" d="M 219.5 226 L 222 226.5 L 219.5 227 L 219.5 226 Z " /><path fill="rgb(185,216,14)" stroke="rgb(185,216,14)" stroke-width="1" opacity="0.5764705882352941" d="M 423.5 226 L 425 228.5 L 424 228.5 L 423.5 226 Z " /><path fill="rgb(185,216,14)" stroke="rgb(185,216,14)" stroke-width="1" opacity="0.5764705882352941" d="M 371.5 228 L 372.5 230 L 371.5 228 Z " /><path fill="rgb(185,216,14)" stroke="rgb(185,216,14)" stroke-width="1" opacity="0.5764705882352941" d="M 376.5 232 L 379 235.5 L 378 235.5 L 376.5 232 Z " /><path fill="rgb(185,216,14)" stroke="rgb(185,216,14)" stroke-width="1" opacity="0.5764705882352941" d="M 287 248 L 289 248.5 L 287 249.5 L 287 248 Z " /><path fill="rgb(185,216,14)" stroke="rgb(185,216,14)" stroke-width="1" opacity="0.5764705882352941" d="M 411 254 L 413 254.5 L 411 255.5 L 411 254 Z " /><path fill="rgb(185,216,14)" stroke="rgb(185,216,14)" stroke-width="1" opacity="0.5764705882352941" d="M 170.5 257 L 171 259 L 168.5 260 L 170.5 257 Z " /><path fill="rgb(185,216,14)" stroke="rgb(185,216,14)" stroke-width="1" opacity="0.5764705882352941" d="M 287.5 265 L 288.5 267 L 287.5 265 Z " /><path fill="rgb(185,216,14)" stroke="rgb(185,216,14)" stroke-width="1" opacity="0.5764705882352941" d="M 209.5 270 L 208.5 272 L 209.5 270 Z " /><path fill="rgb(185,216,14)" stroke="rgb(185,216,14)" stroke-width="1" opacity="0.5764705882352941" d="M 160 273 L 162 273.5 L 160 274.5 L 160 273 Z " /><path fill="rgb(185,216,14)" stroke="rgb(185,216,14)" stroke-width="1" opacity="0.5764705882352941" d="M 206.5 273 L 205.5 275 L 206.5 273 Z " /><path fill="rgb(185,216,14)" stroke="rgb(185,216,14)" stroke-width="1" opacity="0.5764705882352941" d="M 292.5 276 L 293.5 278 L 292.5 276 Z " /><path fill="rgb(185,216,14)" stroke="rgb(185,216,14)" stroke-width="1" opacity="0.5764705882352941" d="M 402.5 278 L 403 281.5 L 402 281.5 L 402.5 278 Z " /><path fill="rgb(185,216,14)" stroke="rgb(185,216,14)" stroke-width="1" opacity="0.5764705882352941" d="M 156.5 286 L 157 288 L 155 287.5 L 156.5 286 Z " /><path fill="rgb(185,216,14)" stroke="rgb(185,216,14)" stroke-width="1" opacity="0.5764705882352941" d="M 502.5 295 L 503.5 297 Q 500.7 297.7 502.5 295 Z " /><path fill="rgb(185,216,14)" stroke="rgb(185,216,14)" stroke-width="1" opacity="0.5764705882352941" d="M 404.5 297 L 405 300.5 L 404 300.5 L 404.5 297 Z " /><path fill="rgb(185,216,14)" stroke="rgb(185,216,14)" stroke-width="1" opacity="0.5764705882352941" d="M 505.5 299 L 507.5 302 L 505.5 299 Z " /><path fill="rgb(185,216,14)" stroke="rgb(185,216,14)" stroke-width="1" opacity="0.5764705882352941" d="M 430 300 L 436.5 301 L 439 300 Q 440.5 303.8 437.5 303 Q 436.2 300.8 431.5 302 L 430 302.5 L 430 300 Z " /><path fill="rgb(185,216,14)" stroke="rgb(185,216,14)" stroke-width="1" opacity="0.5764705882352941" d="M 424.5 302 L 426 302.5 L 423.5 304 L 424.5 302 Z " /><path fill="rgb(185,216,14)" stroke="rgb(185,216,14)" stroke-width="1" opacity="0.5764705882352941" d="M 414 303 L 418 304.5 L 414 305 L 414 303 Z " /><path fill="rgb(185,216,14)" stroke="rgb(185,216,14)" stroke-width="1" opacity="0.5764705882352941" d="M 450.5 303 L 451 305 L 449 304.5 L 450.5 303 Z " /><path fill="rgb(185,216,14)" stroke="rgb(185,216,14)" stroke-width="1" opacity="0.5764705882352941" d="M 268.5 309 L 269.5 311 L 268.5 309 Z " /><path fill="rgb(185,216,14)" stroke="rgb(185,216,14)" stroke-width="1" opacity="0.5764705882352941" d="M 471.5 317 L 472.5 319 L 471.5 317 Z " /><path fill="rgb(185,216,14)" stroke="rgb(185,216,14)" stroke-width="1" opacity="0.5764705882352941" d="M 369.5 321 L 370.5 323 L 369.5 321 Z " /><path fill="rgb(185,216,14)" stroke="rgb(185,216,14)" stroke-width="1" opacity="0.5764705882352941" d="M 119.5 322 L 118.5 324 L 119.5 322 Z " /><path fill="rgb(185,216,14)" stroke="rgb(185,216,14)" stroke-width="1" opacity="0.5764705882352941" d="M 374.5 326 L 375.5 328 L 374.5 326 Z " /><path fill="rgb(185,216,14)" stroke="rgb(185,216,14)" stroke-width="1" opacity="0.5764705882352941" d="M 182 327 Q 185.8 325.5 185 328.5 L 182 328.5 L 182 327 Z " /><path fill="rgb(185,216,14)" stroke="rgb(185,216,14)" stroke-width="1" opacity="0.5764705882352941" d="M 522.5 334 L 523.5 336 Q 520.7 336.7 522.5 334 Z " /><path fill="rgb(185,216,14)" stroke="rgb(185,216,14)" stroke-width="1" opacity="0.5764705882352941" d="M 316.5 336 L 317.5 338 L 316.5 336 Z " /><path fill="rgb(185,216,14)" stroke="rgb(185,216,14)" stroke-width="1" opacity="0.5764705882352941" d="M 486 341 Q 489 340 488 343 Q 485 344 486 341 Z " /><path fill="rgb(185,216,14)" stroke="rgb(185,216,14)" stroke-width="1" opacity="0.5764705882352941" d="M 107.5 344 L 106.5 346 L 107.5 344 Z " /><path fill="rgb(185,216,14)" stroke="rgb(185,216,14)" stroke-width="1" opacity="0.5764705882352941" d="M 149.5 344 L 148.5 346 L 149.5 344 Z " /><path fill="rgb(185,216,14)" stroke="rgb(185,216,14)" stroke-width="1" opacity="0.5764705882352941" d="M 334.5 345 L 335.5 347 L 334.5 345 Z " /><path fill="rgb(185,216,14)" stroke="rgb(185,216,14)" stroke-width="1" opacity="0.5764705882352941" d="M 344.5 353 L 348 355.5 L 346.5 355 L 344.5 353 Z " /><path fill="rgb(185,216,14)" stroke="rgb(185,216,14)" stroke-width="1" opacity="0.5764705882352941" d="M 482.5 383 L 483 385.5 L 482 385.5 L 482.5 383 Z " /><path fill="rgb(185,216,14)" stroke="rgb(185,216,14)" stroke-width="1" opacity="0.5764705882352941" d="M 105.5 390 L 107 392.5 L 105 391.5 L 105.5 390 Z " /><path fill="rgb(185,216,14)" stroke="rgb(185,216,14)" stroke-width="1" opacity="0.5764705882352941" d="M 147.5 393 L 148 395 L 146 394.5 L 147.5 393 Z " /><path fill="rgb(185,216,14)" stroke="rgb(185,216,14)" stroke-width="1" opacity="0.5764705882352941" d="M 340.5 401 L 339.5 403 L 340.5 401 Z " /><path fill="rgb(185,216,14)" stroke="rgb(185,216,14)" stroke-width="1" opacity="0.5764705882352941" d="M 156.5 404 L 157.5 406 L 156.5 404 Z " /><path fill="rgb(185,216,14)" stroke="rgb(185,216,14)" stroke-width="1" opacity="0.5764705882352941" d="M 228.5 406 L 229.5 408 L 228.5 406 Z " /><path fill="rgb(185,216,14)" stroke="rgb(185,216,14)" stroke-width="1" opacity="0.5764705882352941" d="M 291.5 407 L 292.5 409 L 291.5 407 Z " /><path fill="rgb(185,216,14)" stroke="rgb(185,216,14)" stroke-width="1" opacity="0.5764705882352941" d="M 174.5 412 L 175.5 414 Q 172.7 414.7 174.5 412 Z " /><path fill="rgb(185,216,14)" stroke="rgb(185,216,14)" stroke-width="1" opacity="0.5764705882352941" d="M 383.5 413 L 382.5 415 L 383.5 413 Z " /><path fill="rgb(185,216,14)" stroke="rgb(185,216,14)" stroke-width="1" opacity="0.5764705882352941" d="M 375.5 423 L 375 424.5 L 373.5 427 L 374 425.5 L 375.5 423 Z " /><path fill="rgb(185,216,14)" stroke="rgb(185,216,14)" stroke-width="1" opacity="0.5764705882352941" d="M 370.5 428 L 369.5 430 L 370.5 428 Z " /><path fill="rgb(185,216,14)" stroke="rgb(185,216,14)" stroke-width="1" opacity="0.5764705882352941" d="M 129.5 429 Q 131.8 428.3 131 430.5 L 131.5 432 L 129.5 429 Z " /><path fill="rgb(185,216,14)" stroke="rgb(185,216,14)" stroke-width="1" opacity="0.5764705882352941" d="M 374.5 440 L 376 440.5 L 373.5 442 L 374.5 440 Z " /><path fill="rgb(185,216,14)" stroke="rgb(185,216,14)" stroke-width="1" opacity="0.5764705882352941" d="M 173.5 449 Q 175.8 448.3 175 450.5 L 173.5 449 Z " /><path fill="rgb(185,216,14)" stroke="rgb(185,216,14)" stroke-width="1" opacity="0.5764705882352941" d="M 322 449 L 324 449.5 L 322 450.5 L 322 449 Z " /><path fill="rgb(185,216,14)" stroke="rgb(185,216,14)" stroke-width="1" opacity="0.5764705882352941" d="M 444 449 L 446 449.5 L 444 450.5 L 444 449 Z " /><path fill="rgb(202,252,0)" stroke="rgb(202,252,0)" stroke-width="1" opacity="1" d="M 329.5 182 L 338.5 183 L 342.5 182 L 344.5 182 L 351 184.5 L 351.5 186 L 353.5 186 Q 357.3 184.8 356 188.5 L 357 188.5 Q 355.9 185.2 358.5 186 L 363 188 Q 362 185 365 186 L 366.5 189 L 371.5 191 L 372.5 190 L 376.5 194 Q 382.8 192.8 384 196.5 L 384.5 199 L 385 195.5 L 384.5 194 L 386 198 L 388.5 199 L 391 198 Q 389.9 200.7 392.5 200 L 395 204 L 397 204 Q 395.5 207.7 398.5 207 L 402 208.5 L 402 210.5 Q 400.5 214.9 403.5 214 L 405.5 217 L 407 214 Q 410.8 212.5 410 215.5 L 411 218 L 408 219.5 L 408.5 222 L 410.5 222 L 413 222.5 L 410 224 L 410 226.5 L 415 231.5 L 415 236 L 421.5 235 L 426 238.5 L 423.5 237 L 422 238.5 L 422 240.5 L 423.5 243 L 424.5 241 L 425 244 L 427.5 243 Q 430 244 429 248.5 L 428 248.5 Q 429.3 244.8 425.5 246 Q 423.8 243.2 422 247.5 Q 423.4 252.1 417.5 250 L 416.5 247 L 415 246.5 L 416 244.5 L 414.5 245 Q 411.9 244.3 413 247 L 410.5 247 L 408 246 L 409 251 L 403.5 252 L 400.5 249 L 399.5 250 Q 395.1 251.5 396 248.5 L 395 246 L 400.5 244 L 404 246.5 L 404.5 248 L 406 245 L 409 244.5 L 404 242.5 L 403.5 240 L 398 242 Q 399.4 245.7 393.5 244 Q 389.7 241.7 395 239.5 L 393 234 L 390.5 233 L 390 234.5 L 391 237.5 L 388.5 239 L 384 234.5 L 385.5 233 L 387.5 233 L 390 232.5 L 384.5 230 L 382 231.5 L 383 228.5 L 380.5 227 L 380.5 229 L 378 229 Q 379 226 376 227 L 376 224.5 L 369.5 222 Q 368.1 219.4 363.5 220 L 360 216.5 Q 360.7 213.9 358 215 Q 359.1 218.3 355 217 Q 356.1 214.3 353.5 215 L 351.5 215 L 349 214.5 L 356 213.5 L 352.5 212 L 349.5 213 L 345.5 214 Q 344 211.5 342.5 215 L 337.5 213 L 335.5 214 L 332.5 212 L 330 213.5 L 331 211.5 L 328.5 213 L 321.5 216 L 319.5 215 L 315.5 217 L 316 215.5 L 314.5 213 L 312.5 214 L 307.5 213 L 306 216.5 L 307 219 L 301.5 219 L 301 220.5 L 298.5 224 L 294.5 223 L 295.5 226 L 291 226 L 291 230 L 289.5 230 L 289 232.5 L 288.5 235 L 287 234.5 L 287 240.5 L 281 248.5 L 282.5 249 L 284 248.5 Q 281.8 249.7 283 254.5 L 284 256.5 L 281 260.5 L 283.5 264 Q 277.8 262.2 280 268.5 L 284 271 L 284 274 Q 287 273 286 276 L 282.5 274 L 282 275.5 L 283 277.5 L 283 279.5 L 284.5 283 L 288 285.5 L 289.5 288 L 293 286.5 L 291 283.5 L 293 282.5 Q 291.5 286.9 294.5 286 L 299 288.5 L 298 291.5 L 299.5 291 Q 306.1 291.9 309 296.5 L 307.5 299 L 311.5 298 L 316.5 300 L 318 299.5 L 317 301.5 L 318.5 302 L 320.5 301 L 322.5 301 L 327 301 Q 325.9 303.7 328.5 303 L 336 306.5 L 333.5 308 L 330 307 Q 328.7 310.3 333.5 309 L 337.5 309 L 345.5 311 L 347 310.5 L 342 313.5 Q 342.8 315.8 340.5 315 L 341.5 317 L 344.5 315 L 346.5 316 L 350.5 314 Q 353.1 313.3 352 316 L 354.5 316 L 357.5 321 L 361 320 L 362.5 328 L 365 327 L 365.5 324 L 368 325 L 369 328.5 L 368 331 Q 364.7 329.9 366 334 L 370 335 L 370 340 L 366.5 340 L 362.5 339 L 361 341.5 L 366.5 344 Q 367.6 341.3 371 342 Q 369.8 339 373.5 340 L 375 337.5 Q 372.8 336.2 375.5 335 Q 377.8 335.8 377 339.5 L 376 343 L 379.5 341 L 382.5 349 L 386 350.5 L 385 355.5 L 388 360.5 Q 385.5 362 387 367.5 L 389 377.5 L 388 382 L 385 383.5 L 385.5 386 Q 386.8 383.8 388 386.5 L 388 389 Q 385 387.8 386 391.5 L 385 391.5 Q 386.3 387.8 382.5 389 L 382.5 390 Q 385.1 389.2 384 392.5 L 385 394.5 L 382 399.5 L 383.5 400 L 385 399.5 L 380.5 405 L 380 402 Q 376.3 400.5 377 403.5 L 376.5 405 L 379 406.5 L 374 410.5 L 376.5 415 L 377.5 413 L 378 414.5 L 377 417 L 374.5 418 L 374 416 L 370 417 L 369.5 414 Q 366.8 415.3 369 416.5 L 370 422.5 L 368 426 L 364.5 425 L 360 427 L 360 431 L 361.5 431 L 361.5 432 L 356.5 431 L 357 432.5 Q 357.8 435.1 354.5 434 L 354.5 436 L 348.5 437 L 340.5 442 L 338.5 441 L 335.5 444 L 334.5 443 L 330.5 444 L 328.5 443 L 326.5 445 L 318.5 446 L 315.5 444 L 313.5 446 L 306.5 447 L 304.5 446 L 302 447 Q 303.9 441.4 299 443 Q 300.8 447.5 295.5 446 L 292 445 Q 293 448 290 447 Q 291.9 441.4 287 443 L 285.5 446 L 273.5 446 L 272.5 447 L 270 446 L 270.5 444 L 281.5 444 L 281.5 443 L 268.5 443 L 268 444.5 L 268.5 446 L 264.5 447 L 262 446 L 263 443.5 L 260 443 L 258.5 446 L 256 444.5 L 255.5 443 L 253.5 446 L 250 447 L 251 444.5 L 249 444 Q 250.3 447.3 245.5 446 L 245.5 444 Q 242.9 443.3 244 446 L 239.5 446 L 238.5 447 L 226.5 447 L 223.5 446 L 218.5 447 L 216.5 446 Q 215.2 448.3 210.5 447 L 208.5 447 L 188.5 446 L 186.5 445 L 183.5 446 L 180.5 445 L 177.5 446 L 174.5 445 L 172.5 446 L 170.5 445 L 169 445.5 L 168.5 444 L 166.5 445 L 160 442.5 Q 161.3 438.3 156.5 440 L 154.5 441 Q 150 439 153.5 437 L 158.5 436 L 161 437 Q 162.1 434.3 159.5 435 Q 158.1 431 153 432 L 151.5 436 L 149 434.5 L 149.5 433 L 146.5 432 L 142.5 435 L 141.5 433 Q 144.9 433.9 143 428.5 L 139.5 429 L 137 427.5 L 136 425.5 L 140 423.5 L 138.5 423 L 133.5 426 L 130 426 L 126 420.5 L 127 418.5 L 126 416.5 L 130 419.5 L 131.5 423 Q 133.8 422.3 133 418.5 L 130 417.5 L 130 413.5 L 124.5 408 L 122 408.5 L 123 411.5 L 124 415.5 L 122.5 416 L 121 414.5 L 121 408 L 118.5 409 L 116 404.5 L 118 404.5 Q 119.7 398.6 116 400 L 114.5 403 L 112 394.5 L 112 383.5 L 115 380.5 L 113.5 379 Q 111.3 378.3 112 380.5 L 111 385 Q 107.5 386.1 109 378.5 L 107 372 Q 110 373.3 109 369.5 L 108 366.5 L 112 360.5 L 109 352.5 L 110 350 L 112.5 351 L 114 346.5 L 113 343.5 L 115 336 L 118.5 335 L 121 336 L 120 328.5 L 122.5 330 L 126 328.5 Q 123.5 327 127 325.5 L 126 321.5 L 128.5 320 L 129.5 323 L 133 321.5 L 134 318.5 L 131 317 L 130.5 319 L 130 316.5 L 135.5 312 L 136 313.5 L 135 316 L 139 315 Q 137.7 311.3 143.5 313 L 148.5 314 L 150.5 311 L 149 310.5 L 151 309.5 L 148.5 308 L 145.5 310 L 143.5 309 L 141 309.5 L 140.5 312 L 140 309.5 L 151.5 302 L 154.5 303 L 157.5 299 L 160.5 300 L 163 298.5 L 160.5 295 L 159.5 297 L 158 294.5 L 160 294.5 Q 160.8 292.3 158.5 293 L 158.5 292 L 162.5 293 L 163 290.5 L 163 288.5 L 162 286.5 L 164.5 283 L 166 282.5 L 166 280.5 Q 165 276.8 168 278 L 168 275 Q 165 276.3 166 272.5 L 169 270.5 L 169.5 272 L 171 269 L 169 268.5 L 171 268 L 172.5 264 L 176.5 265 Q 179.5 263.5 176.5 262 Q 173.9 262.7 175 260 L 180 256.5 L 179 253.5 L 180 253.5 L 180.5 255 L 184 253.5 L 182 250 L 185 249.5 Q 182.8 248.3 185.5 247 L 189.5 245 L 191.5 246 L 194 245 L 195.5 241 L 200.5 242 L 204 241 L 204.5 237 L 205 239 L 210 238 Q 208.9 240.7 211.5 240 L 217.5 236 L 220.5 236 L 225 238.5 L 224 244 Q 226.7 245.1 226 242.5 Q 228.5 241 227 235.5 L 224 231.5 L 226.5 229 L 229 230.5 Q 228.3 228.3 230.5 229 L 232 233 Q 234.7 231.9 234 234.5 L 229 237.5 Q 228 241.3 231 240 L 231.5 238 L 233 241.5 L 230 253.5 L 227.5 257 L 224.5 256 L 221 258.5 L 223 259.5 L 215.5 261 L 213.5 261 L 205.5 265 L 203.5 264 L 201 265 L 199.5 269 Q 195 268 194 270.5 Q 194.8 273.1 191.5 272 Q 193.2 274.2 189 276.5 Q 187.1 281.9 190.5 281 L 192 283.5 L 191 286 Q 187.3 287.2 189 282 L 182 282 L 184 285.5 L 184 293 Q 179.9 291.3 181 295.5 Q 178.5 297 182 298.5 L 181 302.5 L 182 307 L 184 307 Q 182.3 301.8 186 303 L 185 305.5 L 186 307.5 L 186 309.5 Q 186.8 311.8 184.5 311 L 186 313.5 L 185 320.5 Q 187.3 321.8 184.5 323 L 181.5 324 L 181 321 L 177 323.5 L 176.5 325 L 174.5 324 Q 171.5 327 165.5 327 L 163.5 326 L 161.5 326 Q 156.8 326.3 155 329.5 L 157 332.5 L 147 340.5 Q 147.8 342.8 145.5 342 L 143.5 342 Q 141.3 341.3 142 343.5 L 143 346.5 L 139.5 352 L 137.5 351 L 135 361.5 L 137 365.5 Q 134 366.5 135 371.5 L 135 373.5 Q 134.3 375.8 136.5 375 L 135.5 377 Q 131.1 375.5 132 378.5 L 132 380.5 Q 131.2 383.5 135 382 L 135 387.5 L 137.5 388 L 139 388 Q 137.5 391.8 140.5 391 Q 143.8 392.8 140 394.5 Q 138.8 399.8 141.5 401 L 144 399.5 L 142 398.5 L 144.5 397 L 146 403 L 150 404.5 L 146 406.5 Q 147 410 152.5 409 L 154 408.5 L 152 411.5 Q 156.7 411.3 158 414.5 L 159.5 417 L 164.5 415 Q 165.3 417.7 169.5 417 L 171.5 416 L 175 417 L 175.5 420 L 180.5 418 L 181.5 419 L 211.5 419 L 213.5 418 L 216.5 419 L 219.5 420 Q 220.6 417.2 224 418 L 224.5 420 L 228.5 418 L 230 421 L 227 422.5 L 234.5 423 L 233 420.5 L 234 419.5 Q 233.2 416.9 236.5 418 L 239 413.5 L 238 409 Q 234.2 409.8 233 406.5 L 234 403 Q 230.2 403.8 229 400.5 L 232 397.5 L 231 396.5 Q 231.7 393.9 229 395 L 228.5 397 L 228 395.5 L 228.5 394 L 226 393.5 L 227 388 Q 222.9 386.3 224 390.5 L 223 390.5 L 224 385.5 Q 221.2 383.5 222 379 L 219.5 380 L 222 376.5 L 220.5 372 L 218 373 L 218.5 371 L 220.5 371 L 227.5 373 Q 229 369.5 230.5 372 L 232.5 371 Q 234 373.5 239.5 372 L 249.5 370 L 251 375 Q 254 374 253 377 Q 247.4 375.1 249 380 Q 253.7 379 255 382.5 L 256 389 L 262 391.5 Q 262.5 395.5 259.5 396 L 256.5 392 Q 254.3 392.8 255 390.5 L 251.5 385 L 248 386.5 L 249 391 Q 252.8 390.3 254 393.5 Q 253.5 399 256.5 401 L 262.5 397 L 268 399 Q 266.5 402.8 269.5 402 L 271.5 403 L 274 402 Q 273.3 405.8 276.5 407 Q 279.1 406.3 278 409 L 281.5 409 L 282.5 408 L 287.5 413 L 288.5 412 L 308.5 417 L 315.5 417 L 319.5 414 Q 330.3 415.3 335 410.5 L 335 409 L 339 409 L 339 411 Q 341.7 409.9 341 412.5 L 343 411.5 Q 342.1 406.1 344.5 404 L 345.5 406 L 346 404 L 350 402.5 L 349 399.5 L 354 395.5 L 355 393.5 L 355 391.5 L 357.5 387 L 360 388.5 Q 359.2 391.1 362.5 390 L 361 387.5 Q 361.8 384.9 358.5 386 Q 356.3 385.3 357 381.5 L 358 378.5 L 358 376.5 L 359 371.5 L 357 370.5 L 359 367.5 L 357.5 364 L 356.5 366 L 354 354 Q 357.8 355.5 357 352.5 L 357 348.5 L 355.5 345 L 355 348 L 352.5 348 L 346 343.5 Q 346.9 340.5 342.5 342 Q 341 345.5 339.5 343 L 338 342.5 L 338.5 341 L 336.5 340 L 334.5 341 L 331 340 L 331 337 L 326 337 Q 327.7 331.8 324 333 Q 325.1 336.3 321 335 Q 322.4 331 315.5 333 L 314 330 L 308 328 Q 309.3 325 305.5 326 L 303 327 L 301.5 324 L 299 322.5 L 300 320 L 298 320 Q 299.1 317.3 296.5 318 L 292.5 316 L 293 319.5 L 292.5 321 L 290 317.5 L 292 314.5 L 291 311 L 282 312 L 280.5 308 L 278 309.5 L 275.5 304 L 271 305 L 272 302.5 L 268 296 Q 265.3 297.1 266 294.5 L 263.5 293 L 261.5 294 Q 257.3 292.7 258 288 L 263 289 L 263 287 Q 259.3 288.5 260 285.5 L 261 283.5 L 258.5 278 L 255.5 281 L 254 279.5 L 256 269.5 L 252 260.5 L 251 250.5 L 255 237.5 L 254.5 236 L 256.5 237 L 258 234 Q 254.3 235.2 256 230 Q 259 231.3 258 227.5 L 260 227.5 L 261 224.5 L 261 222.5 L 268.5 212 L 269 216 L 272 214.5 L 270 210.5 L 273.5 206 L 275 209 L 280 206.5 L 279 201.5 Q 280.7 197.5 287 199 L 288.5 196 L 291 195.5 L 290.5 194 L 295 196 Q 293.9 198.7 296.5 198 L 298 198.5 L 297 195.5 L 298 193.5 L 297.5 192 Q 301.3 192.8 302 190.5 L 303.5 188 Q 308.9 188.6 311 187 L 311.5 185 L 312 186.5 L 311 189.5 Q 312.8 193.8 314.5 191 L 316 191 L 316 187 L 317.5 187 L 318.5 184 L 329.5 182 Z M 343 188 Q 342 191 345 190 Q 346 187 343 188 Z M 308 190 L 308 192 L 310 191 L 308 190 Z M 316 193 L 314 195 L 321 196 Q 324 195 321 193 L 318 194 L 316 193 Z M 303 194 L 303 197 L 307 198 L 307 196 L 303 194 Z M 340 204 L 341 206 L 342 206 L 340 204 Z M 275 211 L 277 215 Q 276 217 279 216 L 281 219 Q 283 220 282 217 L 279 215 L 278 213 Q 279 210 275 211 Z M 318 211 L 319 214 L 321 214 L 318 211 Z M 361 212 L 357 214 L 361 215 L 362 215 L 361 212 Z M 270 217 L 268 220 L 270 220 L 270 217 Z M 402 217 L 402 220 L 403 221 Q 398 220 400 224 L 403 224 Q 402 221 405 222 Q 408 220 404 219 Q 405 216 402 217 Z M 279 219 L 276 221 Q 278 224 279 221 L 279 219 Z M 299 220 L 296 222 L 299 223 L 299 220 Z M 285 221 Q 282 223 285 224 Q 290 226 289 223 Q 288 220 285 221 Z M 386 222 Q 384 225 387 224 L 386 222 Z M 393 222 L 393 226 L 395 225 Q 396 221 393 222 Z M 406 223 L 403 228 L 403 229 L 405 230 L 405 237 L 412 240 Q 415 241 416 239 L 415 237 L 411 234 Q 409 237 407 233 L 408 230 L 408 228 Q 409 224 407 225 L 407 224 L 406 223 Z M 283 229 L 281 231 L 282 235 L 284 234 Q 289 236 287 231 L 283 229 Z M 400 229 L 399 231 L 402 231 L 400 229 Z M 254 243 Q 253 248 256 251 Q 255 254 258 253 L 259 254 Q 260 248 257 247 Q 259 241 254 243 Z M 201 244 L 199 247 L 200 251 L 201 251 L 201 244 Z M 191 248 L 191 250 Q 187 249 188 252 L 185 252 L 185 254 L 190 255 L 193 253 L 194 254 L 193 252 Q 195 247 191 248 Z M 226 248 L 226 249 L 228 249 L 226 248 Z M 276 252 L 275 261 L 277 261 L 277 254 L 276 252 Z M 200 255 L 199 257 L 192 260 L 190 260 L 189 263 L 192 264 L 194 261 L 199 263 Q 198 259 201 258 L 200 255 Z M 261 255 Q 258 256 259 261 L 262 263 Q 264 257 261 258 L 261 257 L 261 255 Z M 181 261 L 181 263 L 181 264 Q 185 265 184 263 L 181 261 Z M 190 264 L 188 268 L 190 267 L 190 264 Z M 261 265 L 259 267 Q 258 269 262 268 L 261 265 Z M 179 268 L 178 271 L 180 276 L 184 274 L 181 270 Q 182 267 179 268 Z M 260 269 L 262 271 Q 263 268 260 269 Z M 174 272 L 171 273 L 170 276 L 171 278 L 175 277 L 174 275 Q 176 273 174 272 Z M 283 284 Q 282 287 285 286 Q 286 283 283 284 Z M 293 288 L 293 291 L 296 292 Q 299 293 297 289 L 293 288 Z M 283 291 L 281 293 L 284 294 L 285 297 L 289 298 L 291 295 Q 288 291 283 291 Z M 176 292 L 175 320 L 176 320 L 176 292 Z M 294 297 L 294 302 L 300 302 L 300 300 L 294 297 Z M 279 300 Q 279 303 276 302 L 276 304 L 279 305 L 280 303 L 279 300 Z M 307 300 L 307 302 L 310 302 L 307 300 Z M 154 304 L 151 307 L 151 309 L 153 310 L 156 307 Q 157 303 154 304 Z M 281 304 L 281 308 L 284 308 L 288 307 L 288 304 L 281 304 Z M 295 306 L 293 309 L 296 310 L 297 307 L 295 306 Z M 298 310 Q 297 315 301 316 L 303 315 L 302 312 L 302 310 L 298 310 Z M 321 310 L 321 314 L 325 315 Q 327 314 325 313 L 326 311 L 321 310 Z M 157 312 L 157 315 L 161 316 Q 163 310 157 312 Z M 336 315 L 335 317 L 340 317 Q 339 314 336 315 Z M 181 316 L 182 320 L 183 317 L 181 316 Z M 141 318 L 138 322 L 141 323 Q 144 324 145 322 L 141 318 Z M 343 320 L 339 321 L 339 322 L 345 322 L 343 320 Z M 353 320 Q 352 323 355 322 Q 356 319 353 320 Z M 165 321 L 165 323 L 167 322 L 167 324 L 170 325 L 172 325 L 172 323 L 169 323 L 171 322 L 165 321 Z M 315 321 L 312 322 Q 308 324 312 326 L 311 326 L 307 324 L 310 327 L 314 326 Q 316 327 315 325 Q 312 323 316 322 L 315 321 Z M 145 324 Q 144 328 147 327 Q 148 323 145 324 Z M 324 324 L 319 327 Q 314 326 316 330 Q 322 331 324 327 Q 328 326 327 329 L 334 327 L 324 324 Z M 153 325 L 151 327 L 155 329 L 156 327 L 153 325 Z M 365 328 L 364 330 L 363 332 L 366 331 L 365 328 Z M 145 330 L 145 333 Q 148 332 150 335 Q 153 336 154 333 L 153 332 L 151 333 L 151 330 L 145 330 Z M 341 330 L 339 332 L 342 332 Q 343 329 341 330 Z M 327 332 L 327 334 L 330 335 Q 332 331 327 332 Z M 142 334 L 140 338 L 144 339 L 142 334 Z M 333 335 Q 332 338 335 337 Q 336 334 333 335 Z M 116 341 L 117 343 Q 118 340 116 341 Z M 135 341 L 133 342 L 131 346 L 135 348 L 136 346 Q 137 342 135 341 Z M 358 342 Q 357 345 360 344 L 361 347 Q 364 348 363 346 L 358 342 Z M 118 343 L 116 346 L 117 351 L 118 348 L 118 343 Z M 120 353 L 118 357 L 121 358 L 121 353 L 120 353 Z M 361 355 L 360 357 L 359 360 L 361 361 Q 360 358 363 359 L 363 356 L 361 355 Z M 385 356 L 383 358 L 385 358 L 385 356 Z M 384 360 Q 384 364 386 361 L 384 360 Z M 358 361 Q 357 364 360 363 Q 361 360 358 361 Z M 116 365 L 116 370 L 118 371 Q 120 364 116 365 Z M 128 368 L 126 371 L 127 374 L 129 373 L 128 368 Z M 245 372 L 245 376 Q 247 377 244 379 Q 243 385 246 384 Q 248 383 247 379 L 248 376 Q 250 370 245 372 Z M 122 379 Q 122 382 119 381 Q 117 386 121 388 L 122 386 L 122 379 Z M 235 383 L 236 385 Q 237 382 235 383 Z M 116 388 L 116 393 L 118 393 L 118 388 L 116 388 Z M 242 392 Q 241 397 244 398 L 245 398 L 244 396 L 244 394 Q 245 391 242 392 Z M 239 397 L 236 401 L 238 404 L 239 402 L 239 397 Z M 359 397 L 357 399 L 360 399 L 359 397 Z M 245 399 L 247 403 L 249 402 Q 251 403 250 401 Q 249 398 245 399 Z M 264 399 L 262 402 Q 264 405 265 402 L 264 399 Z M 354 400 L 352 402 Q 351 404 354 403 L 354 400 Z M 129 402 L 126 403 L 126 405 L 131 405 Q 133 401 129 402 Z M 363 402 L 361 404 Q 360 406 364 405 L 365 406 L 364 404 Q 365 401 363 402 Z M 133 405 L 133 410 Q 136 409 135 412 L 138 412 L 140 409 Q 138 405 133 405 Z M 374 406 L 372 409 L 374 408 L 374 406 Z M 241 407 Q 239 410 242 409 L 241 407 Z M 145 411 L 143 413 L 145 413 L 147 414 Q 146 416 149 415 L 151 418 L 151 416 L 145 411 Z M 137 415 Q 136 419 139 420 L 141 420 Q 140 417 143 418 L 144 415 L 142 416 L 137 415 Z M 241 415 L 238 419 L 242 420 Q 243 416 241 415 Z M 326 415 L 324 417 L 322 417 L 322 421 L 328 419 Q 332 418 333 421 L 337 420 L 338 417 L 339 415 L 334 417 Q 332 414 326 415 Z M 295 417 L 293 419 L 296 420 Q 299 421 300 419 L 295 417 Z M 148 418 L 146 420 L 148 420 L 148 418 Z M 361 419 L 360 423 L 362 422 L 364 423 L 365 421 L 361 419 Z M 149 420 L 149 422 L 152 423 Q 158 424 157 422 Q 155 418 149 420 Z M 169 420 L 167 421 L 168 423 L 171 422 L 169 420 Z M 144 421 L 142 423 L 144 423 L 144 421 Z M 134 423 L 133 425 L 135 424 L 134 423 Z M 145 423 L 143 427 L 146 428 Q 150 429 151 427 L 145 423 Z M 341 423 Q 340 427 346 425 L 347 426 L 347 423 L 341 423 Z M 158 425 L 156 427 L 161 430 L 162 427 Q 161 424 158 425 Z M 352 429 Q 351 432 354 431 Q 355 428 352 429 Z M 347 431 L 346 435 L 346 436 L 350 434 Q 352 435 351 432 L 347 431 Z " /><path fill="rgb(202,252,0)" stroke="rgb(202,252,0)" stroke-width="1" opacity="1" d="M 311.5 217 L 312.5 219 L 311.5 217 Z " /><path fill="rgb(202,252,0)" stroke="rgb(202,252,0)" stroke-width="1" opacity="1" d="M 417 227 Q 420.7 225.5 420 228.5 Q 422.3 229.8 419.5 231 L 417 227 Z " /><path fill="rgb(202,252,0)" stroke="rgb(202,252,0)" stroke-width="1" opacity="1" d="M 213.5 232 Q 218.9 230.1 218 233.5 L 216.5 235 L 207.5 236 L 207.5 235 L 210 235 Q 208.8 232 212.5 233 L 213.5 232 Z " /><path fill="rgb(202,252,0)" stroke="rgb(202,252,0)" stroke-width="1" opacity="1" d="M 197.5 238 L 202 239.5 L 200.5 240 L 197.5 239 L 197.5 238 Z " /><path fill="rgb(202,252,0)" stroke="rgb(202,252,0)" stroke-width="1" opacity="1" d="M 434.5 270 L 437.5 271 Q 438.7 268.8 443.5 270 L 449 271.5 L 448.5 273 Q 451.7 275.3 458.5 274 L 460.5 273 L 465 275.5 L 463 278.5 L 464.5 279 L 466.5 278 L 466.5 280 L 469 278.5 L 468.5 277 L 471 278.5 L 469 281.5 L 470.5 282 L 472 279 Q 475.8 277.5 475 280.5 L 477.5 283 L 479.5 283 Q 483.5 282.5 484 285.5 L 483 287.5 L 484.5 288 L 486.5 288 L 488 288.5 L 487 291 L 490 292.5 L 488.5 295 L 485 294.5 L 487 291.5 Q 485 287 483 290.5 L 483 294.5 L 486.5 300 L 488.5 301 L 490 298 L 492 297.5 L 491 295.5 L 494 293.5 L 495.5 296 Q 498.8 294.9 498 297.5 L 495 303 Q 497.7 301.9 497 304.5 L 499.5 303 L 503 303 L 503 307 L 504.5 307 L 504.5 308 L 503 308.5 L 504.5 311 L 502 312.5 L 502.5 315 L 504.5 314 L 508 316 L 509 313.5 L 508 311.5 L 510 312.5 L 514 320.5 L 514 322.5 L 513 325.5 Q 514.3 328.3 515.5 326 Q 518.5 325.1 517 329.5 Q 521 331.5 517 333.5 L 519 342.5 Q 516 343.5 517 348.5 L 518.5 351 L 521 350 Q 523.3 353.7 522 362 L 519 363.5 L 521 370.5 L 517 376.5 L 518 381.5 L 516.5 388 L 516 385 L 513.5 386 L 514 384.5 Q 514.8 382.3 512.5 383 Q 511.2 380.8 510 383.5 Q 509.4 389.1 513 390.5 L 511 390.5 L 510 400.5 L 507 403.5 L 503.5 412 L 498.5 411 L 496 411.5 Q 496.8 413.8 494.5 413 Q 490.1 415.1 490 421.5 L 492.5 425 L 487.5 429 L 485.5 428 L 483.5 429 L 481.5 426 L 481 429 Q 477.2 428.3 476 431.5 L 479 433.5 L 472 437 L 474 431 L 466 432 L 467 434.5 Q 464.3 435.6 465 439 L 461 439.5 L 463 440.5 L 459 441 L 458.5 444 L 456.5 443 L 454.5 444 L 453 441 L 448.5 442 Q 446.7 439.2 445 443.5 L 446.5 444 L 448 443.5 L 449 445.5 L 444 446 L 443.5 444 L 443 446 L 416.5 446 L 415.5 447 Q 413.8 444.3 407.5 446 L 403.5 447 L 401.5 446 L 399.5 446 L 386.5 446 L 386 444.5 L 385 444.5 Q 385.8 446.8 383.5 446 L 381 445 Q 382.4 448.7 376.5 447 L 376.5 446 L 383 443.5 L 380 442.5 L 382 439 L 388 438 L 390 433.5 L 389.5 432 L 391 431.5 L 390 429 L 394 426.5 L 395.5 424 Q 397.8 424.8 397 422.5 L 399.5 418 L 402.5 419 L 404.5 419 L 409.5 418 L 413.5 419 L 417.5 419 L 422.5 418 L 423.5 420 L 425.5 419 L 427.5 419 L 431.5 420 L 437.5 418 L 441.5 418 L 448.5 422 L 453 419.5 L 448 416.5 L 453 416 Q 451.8 419 455.5 418 L 464 411.5 Q 462.8 407.8 466.5 409 L 472 405.5 L 471.5 404 L 478.5 406 Q 482 404 477.5 402 L 476 401.5 L 478 401 L 478 398.5 L 482.5 393 L 486 391.5 L 486 390 L 488 390 Q 486.9 387.3 489.5 388 L 492 384.5 L 489.5 381 L 488 380.5 L 493.5 378 L 493 379.5 L 494.5 387 L 496 383.5 Q 493.5 382 495 376.5 L 495 374.5 L 496 372.5 L 495 368.5 Q 497.3 367.3 496 362.5 L 495 360 Q 492.3 361.1 493 358.5 Q 490.5 357 492 351.5 L 492 349.5 L 491 347.5 L 492 345.5 L 489 333 Q 486.3 334.1 487 331.5 L 488 329 L 491 327.5 L 489.5 327 L 488 327.5 Q 488.8 325.3 486.5 326 L 486.5 328 L 484 326.5 L 484 324.5 L 480 319 Q 484.1 320.3 483 317 L 478.5 314 L 478 315.5 L 478.5 317 L 476 315.5 L 476 313 L 474 313 Q 475.1 310.3 472.5 311 L 462 304.5 L 465 303.5 L 462.5 302 L 458.5 304 L 457 301 L 449.5 298 L 448.5 300 L 446 298.5 L 446.5 297 L 437 298 Q 438 295 435 296 L 434.5 298 L 432.5 297 L 422 299 L 420.5 296 L 417.5 300 Q 413.3 301.1 415 297 L 412 297 L 411.5 299 L 410 298.5 L 409.5 301 L 408 297.5 L 410 286.5 L 408 286.5 L 409 283.5 L 406 275.5 L 407 273 Q 410.8 271.5 410 274.5 L 413.5 280 L 416 276.5 L 414 272.5 Q 415 270 419.5 271 L 423 273 L 423.5 271 L 427.5 272 L 429.5 271 L 431.5 271 L 434.5 270 Z M 420 278 Q 419 283 423 281 Q 425 277 420 278 Z M 419 285 Q 416 289 420 288 L 419 285 Z M 440 287 L 441 289 L 443 289 L 440 287 Z M 459 301 Q 457 304 460 303 L 459 301 Z M 471 302 L 472 304 Q 475 303 473 307 Q 479 309 477 304 L 471 302 Z M 509 316 L 507 320 L 507 321 L 511 321 L 510 318 Q 511 315 509 316 Z M 491 321 L 491 327 Q 496 329 494 323 L 491 321 Z M 498 332 L 496 336 L 498 337 L 498 332 Z M 506 333 L 506 338 L 508 338 L 508 333 L 506 333 Z M 495 339 Q 492 342 493 348 L 496 349 Q 497 343 495 339 Z M 501 362 L 502 365 L 501 369 L 504 370 L 503 369 Q 502 366 506 367 L 506 366 L 506 364 L 506 362 L 501 362 Z M 513 366 L 511 371 L 512 373 L 510 376 L 514 378 L 516 375 L 513 376 Q 512 373 515 374 L 514 371 L 515 368 Q 516 365 513 366 Z M 499 371 L 497 374 L 500 372 L 499 371 Z M 498 384 Q 498 388 496 387 L 497 390 L 496 391 Q 495 393 498 392 L 498 384 Z M 504 390 L 503 393 L 504 393 L 504 390 Z M 496 395 L 494 405 L 498 403 L 497 401 L 498 398 Q 499 394 496 395 Z M 484 402 Q 481 404 484 405 L 486 404 Q 487 401 484 402 Z M 471 407 L 469 409 L 471 409 L 471 407 Z M 473 407 L 472 409 L 466 412 L 469 413 L 471 413 L 476 411 L 476 407 L 475 407 L 473 407 Z M 483 410 L 477 415 Q 474 414 475 419 L 478 420 Q 480 419 479 415 L 483 414 L 483 410 Z M 468 417 L 465 420 L 465 422 L 470 422 L 471 419 L 468 417 Z M 461 418 L 459 420 L 460 422 Q 459 424 462 423 L 463 420 L 461 418 Z M 483 418 Q 482 422 485 421 Q 486 417 483 418 Z M 434 421 L 433 423 L 436 423 L 434 421 Z M 478 422 L 473 425 L 477 426 L 481 424 L 478 422 Z M 489 422 Q 487 425 490 424 L 489 422 Z M 486 424 L 486 426 L 488 425 L 486 424 Z M 463 425 L 463 428 L 469 427 L 463 425 Z M 398 426 L 399 430 Q 404 432 402 427 L 398 426 Z M 395 433 Q 394 436 398 435 Q 399 432 395 433 Z M 402 437 L 400 439 L 403 439 Q 404 436 402 437 Z M 394 438 L 393 439 Q 390 438 391 441 L 394 440 L 394 438 Z " /><path fill="rgb(202,252,0)" stroke="rgb(202,252,0)" stroke-width="1" opacity="1" d="M 196.5 272 Q 200.3 271.3 201 273.5 L 198 275 L 194.5 281 L 193.5 277 L 192 277.5 L 194 273 L 196.5 272 Z " /><path fill="rgb(202,252,0)" stroke="rgb(202,252,0)" stroke-width="1" opacity="1" d="M 258.5 283 L 259 285 L 257 284.5 L 258.5 283 Z " /><path fill="rgb(202,252,0)" stroke="rgb(202,252,0)" stroke-width="1" opacity="1" d="M 183.5 295 L 184 297 L 182 296.5 L 183.5 295 Z " /><path fill="rgb(202,252,0)" stroke="rgb(202,252,0)" stroke-width="1" opacity="1" d="M 185.5 298 L 186 300.5 L 184 301.5 L 185.5 298 Z " /><path fill="rgb(202,252,0)" stroke="rgb(202,252,0)" stroke-width="1" opacity="1" d="M 282.5 314 L 286 315.5 Q 284.7 318.3 283.5 316 Q 280.7 316.7 282.5 314 Z " /><path fill="rgb(202,252,0)" stroke="rgb(202,252,0)" stroke-width="1" opacity="1" d="M 123 324 Q 125.7 322.9 125 325.5 L 123.5 328 Q 120.7 326.8 123 325.5 L 123 324 Z " /><path fill="rgb(202,252,0)" stroke="rgb(202,252,0)" stroke-width="1" opacity="1" d="M 159.5 328 L 162 329.5 L 159.5 331 L 159.5 328 Z " /><path fill="rgb(202,252,0)" stroke="rgb(202,252,0)" stroke-width="1" opacity="1" d="M 372.5 331 Q 374.8 330.3 374 332.5 L 372.5 331 Z " /><path fill="rgb(202,252,0)" stroke="rgb(202,252,0)" stroke-width="1" opacity="1" d="M 343.5 343 Q 345.8 342.3 345 344.5 L 346 347.5 L 342 344.5 L 343.5 343 Z " /><path fill="rgb(202,252,0)" stroke="rgb(202,252,0)" stroke-width="1" opacity="1" d="M 519.5 344 Q 521.8 343.3 521 345.5 L 519.5 344 Z " /><path fill="rgb(202,252,0)" stroke="rgb(202,252,0)" stroke-width="1" opacity="1" d="M 492.5 372 Q 494.8 371.3 494 373.5 L 492.5 372 Z " /><path fill="rgb(202,252,0)" stroke="rgb(202,252,0)" stroke-width="1" opacity="1" d="M 134.5 378 Q 137.8 376.9 137 379.5 L 137 381.5 L 136.5 383 L 136 380 L 133 379.5 L 134.5 378 Z " /><path fill="rgb(202,252,0)" stroke="rgb(202,252,0)" stroke-width="1" opacity="1" d="M 380.5 408 L 381 410.5 L 380 410.5 L 380.5 408 Z " /><path fill="rgb(202,252,0)" stroke="rgb(202,252,0)" stroke-width="1" opacity="1" d="M 158 411 Q 161 410 160 413 Q 157 414 158 411 Z " /><path fill="rgb(202,252,0)" stroke="rgb(202,252,0)" stroke-width="1" opacity="1" d="M 499.5 413 L 500 417 L 498 417 Q 499.1 419.7 496.5 419 L 495 419.5 L 495 417.5 L 496.5 414 L 497 416 Q 500.1 417.1 499.5 413 Z " /></svg>